<svg xmlns="http://www.w3.org/2000/svg" xmlns:xlink="http://www.w3.org/1999/xlink" width="452.17" height="207.79" viewBox="0 0 452.17 207.79"><defs><style>.cls-1{fill:none;}.cls-2{isolation:isolate;}.cls-3{clip-path:url(#clip-path);}.cls-4{fill:#152667;}.cls-5{fill:#0f1b49;}.cls-6{clip-path:url(#clip-path-2);}.cls-7{fill:gray;}.cls-8{fill:#b3b3b3;}.cls-9{clip-path:url(#clip-path-3);}.cls-10{fill:#142460;}.cls-11{fill:#142563;}.cls-12{fill:#13235d;}.cls-13{clip-path:url(#clip-path-4);}.cls-14{fill:#13215b;}.cls-15{clip-path:url(#clip-path-5);}.cls-16{fill:#101c4c;}.cls-17{clip-path:url(#clip-path-6);}.cls-18{clip-path:url(#clip-path-7);}.cls-19{clip-path:url(#clip-path-8);}.cls-20{clip-path:url(#clip-path-9);}.cls-21{fill:#122058;}.cls-22{fill:#111f55;}.cls-23{fill:#111e52;}.cls-24{fill:#101d4f;}.cls-25{clip-path:url(#clip-path-10);}.cls-26{fill:#a3a3a3;}.cls-27{fill:#a8a8a8;}.cls-28{fill:#adadad;}.cls-29{fill:#9e9e9e;}.cls-30{fill:#999;}.cls-31{fill:#949494;}.cls-32{fill:#8f8f8f;}.cls-33{fill:#8a8a8a;}.cls-34{fill:#858585;}.cls-35{clip-path:url(#clip-path-11);}.cls-36{clip-path:url(#clip-path-12);}.cls-37{clip-path:url(#clip-path-13);}.cls-38{clip-path:url(#clip-path-14);}.cls-39{clip-path:url(#clip-path-15);}.cls-40{clip-path:url(#clip-path-16);}.cls-41{clip-path:url(#clip-path-17);}.cls-42{clip-path:url(#clip-path-18);}.cls-43{clip-path:url(#clip-path-19);}.cls-44{clip-path:url(#clip-path-20);}.cls-45{clip-path:url(#clip-path-21);}.cls-46{clip-path:url(#clip-path-22);}.cls-47{clip-path:url(#clip-path-23);}.cls-48{clip-path:url(#clip-path-24);}.cls-49{clip-path:url(#clip-path-25);}.cls-50{clip-path:url(#clip-path-26);}.cls-51{clip-path:url(#clip-path-27);}.cls-52{clip-path:url(#clip-path-28);}.cls-53{clip-path:url(#clip-path-29);}.cls-54{clip-path:url(#clip-path-30);}.cls-55{clip-path:url(#clip-path-31);}.cls-56{clip-path:url(#clip-path-32);}.cls-57{clip-path:url(#clip-path-33);}.cls-58{clip-path:url(#clip-path-34);}.cls-59{clip-path:url(#clip-path-35);}.cls-60{clip-path:url(#clip-path-36);}.cls-61{clip-path:url(#clip-path-37);}.cls-62{fill:#fff;}.cls-63{clip-path:url(#clip-path-38);}.cls-64{clip-path:url(#clip-path-39);}</style><clipPath id="clip-path" transform="translate(0 0)"><path class="cls-1" d="M423,187.18l-21.4-26.48c15.05-.79,27.38-13.49,27.48-28.33l21.41,26.48C450.33,173.69,438,186.39,423,187.18Z"/></clipPath><clipPath id="clip-path-2" transform="translate(0 0)"><path class="cls-1" d="M424.25,10.38l21.4,26.48A25.15,25.15,0,0,1,451.2,53L429.8,26.48A25.15,25.15,0,0,0,424.25,10.38Z"/></clipPath><clipPath id="clip-path-3" transform="translate(0 0)"><path class="cls-1" d="M402.7,1a25.7,25.7,0,0,1,21.54,9.36l21.4,26.48a25.7,25.7,0,0,0-21.54-9.36Z"/></clipPath><clipPath id="clip-path-4" transform="translate(0 0)"><path class="cls-1" d="M152.33,143l-21.39-26.47L152.33,143Z"/></clipPath><clipPath id="clip-path-5" transform="translate(0 0)"><path class="cls-1" d="M163.67,132.09,153,118.86l10.7,13.23Z"/></clipPath><clipPath id="clip-path-6" transform="translate(0 0)"><path class="cls-1" d="M142.27,105.61l.1-.25,2.5,3.09,2.66,3.28,2.75,3.41,2.8,3.46,2.8,3.47,2.75,3.4,2.65,3.28,2.49,3.09-.09.25-21.41-26.48Z"/></clipPath><clipPath id="clip-path-7" transform="translate(0 0)"><path class="cls-1" d="M143.9,96.61l21.4,26.48a24.78,24.78,0,0,1-1.53,8.75q-10.7-13.25-21.4-26.48A24.78,24.78,0,0,0,143.9,96.61Z"/></clipPath><clipPath id="clip-path-8" transform="translate(0 0)"><path class="cls-1" d="M134.38,143.93a3.66,3.66,0,0,1-.6-.75l-1.25-1.55c-1.1-1.36-2.2-2.71-3.29-4.07l-5.55-6.87q5.34,6.63,10.7,13.24Z"/></clipPath><clipPath id="clip-path-9" transform="translate(0 0)"><path class="cls-1" d="M142.27,105.61l21.4,26.48a18.68,18.68,0,0,1-4.44,6.65,20.39,20.39,0,0,1-6.9,4.25l-21.39-26.47L152.33,143a29.67,29.67,0,0,1-9,1.78,28,28,0,0,1-8.94-.84L113,117.46l10.7,13.23,1.4,1.74,1.4,1.73,1.38,1.71,1.37,1.69,1.34,1.66,1.31,1.62,1.27,1.57,1.22,1.52a17.55,17.55,0,0,1-6.8-3.53,14.07,14.07,0,0,1-1.86-1.92L104.32,112a14.07,14.07,0,0,0,1.86,1.92,17.39,17.39,0,0,0,6.81,3.53,27.92,27.92,0,0,0,8.94.84,29.67,29.67,0,0,0,9-1.78,20.39,20.39,0,0,0,6.9-4.25A18.68,18.68,0,0,0,142.27,105.61Z"/></clipPath><clipPath id="clip-path-10" transform="translate(0 0)"><path class="cls-1" d="M134.53,133l-21.4-26.48a5.47,5.47,0,0,0,.45.51c1.92,1.94,4.72,2.83,8.41,2.63s6.45-1.37,8.39-3.51,2.94-5.58,3-10.29l21.41,26.48c0,4.71-1,8.13-3,10.29s-4.74,3.32-8.39,3.51-6.49-.69-8.41-2.63A5.47,5.47,0,0,1,134.53,133Z"/></clipPath><clipPath id="clip-path-11" transform="translate(0 0)"><path class="cls-1" d="M113.13,106.55c-1.62-2-2.41-5.15-2.38-9.47l21.4,26.48c0,4.32.76,7.47,2.38,9.47Z"/></clipPath><clipPath id="clip-path-12" transform="translate(0 0)"><path class="cls-1" d="M94.7,109h0l2.51,3.1,2.65,3.28,2.75,3.4,2.8,3.47,2.8,3.46,2.75,3.4c.79,1,1.85,2.3,2.65,3.28l2.49,3.09h0Q105.41,122.26,94.7,109Z"/></clipPath><clipPath id="clip-path-13" transform="translate(0 0)"><path class="cls-1" d="M142.5,74.34A16.79,16.79,0,0,0,140,70l21.41,26.48a17.05,17.05,0,0,1,2.51,4.31,23.06,23.06,0,0,1,1.49,8.9L144,83.24A23.06,23.06,0,0,0,142.5,74.34Z"/></clipPath><clipPath id="clip-path-14" transform="translate(0 0)"><path class="cls-1" d="M131.05,75.74l21.4,26.48q2.43,3,2.38,9.51l-21.4-26.48Q133.48,78.74,131.05,75.74Z"/></clipPath><clipPath id="clip-path-15" transform="translate(0 0)"><path class="cls-1" d="M94.7,109a21.58,21.58,0,0,0,1.23-6.36l21.4,26.48a21.58,21.58,0,0,1-1.23,6.36Z"/></clipPath><clipPath id="clip-path-16" transform="translate(0 0)"><path class="cls-1" d="M125.72,138.49,104.32,112a16.37,16.37,0,0,1-2.47-4.29,23.2,23.2,0,0,1-1.46-8.83l21.4,26.48a23.2,23.2,0,0,0,1.46,8.83A16.37,16.37,0,0,0,125.72,138.49Z"/></clipPath><clipPath id="clip-path-17" transform="translate(0 0)"><path class="cls-1" d="M27.17,197.42,5.76,170.94a25.74,25.74,0,0,0,21.56,9.37l21.4,26.48A25.72,25.72,0,0,1,27.17,197.42Z"/></clipPath><clipPath id="clip-path-18" transform="translate(0 0)"><path class="cls-1" d="M94.22,110.19A12,12,0,0,0,94.7,109l2.5,3.09,2.66,3.28,2.75,3.41,2.8,3.46,2.8,3.46,2.75,3.41,2.64,3.27,2.5,3.1c-.14.4-.3.79-.47,1.17a15.75,15.75,0,0,1-4.15,5.53,19,19,0,0,1-6.34,3.51,30.43,30.43,0,0,1-8.25,1.49,31.18,31.18,0,0,1-8.68-.63,14.32,14.32,0,0,1-6.36-3.14Q71.14,130.2,60.45,117a14.34,14.34,0,0,0,6.35,3.14,31.29,31.29,0,0,0,8.69.63,30.43,30.43,0,0,0,8.25-1.49,19.1,19.1,0,0,0,6.34-3.51A15.73,15.73,0,0,0,94.22,110.19Z"/></clipPath><clipPath id="clip-path-19" transform="translate(0 0)"><path class="cls-1" d="M130.58,75.21c.16.17.32.34.47.53l21.4,26.48c-.15-.19-.31-.36-.47-.53q-10.69-13.23-21.4-26.47l2.5,3.09,2.65,3.28,2.75,3.4,2.8,3.47,2.8,3.46,2.75,3.4,2.65,3.28c.75.93,1.75,2.16,2.49,3.09-1.94-1.94-4.71-2.83-8.31-2.64l-21.4-26.48C125.86,72.38,128.63,73.27,130.58,75.21Z"/></clipPath><clipPath id="clip-path-20" transform="translate(0 0)"><path class="cls-1" d="M132.23,112.92l-21.4-26.48q0-7.11,3-10.35c2-2.15,4.77-3.33,8.42-3.52l21.4,26.48c-3.65.19-6.45,1.37-8.42,3.52S132.26,108.18,132.23,112.92Z"/></clipPath><clipPath id="clip-path-21" transform="translate(0 0)"><path class="cls-1" d="M60.45,117h0l2.5,3.1,2.65,3.28,2.75,3.4,2.8,3.47,2.8,3.46,2.75,3.41,2.65,3.27,2.5,3.09h0Q71.14,130.2,60.45,117Z"/></clipPath><clipPath id="clip-path-22" transform="translate(0 0)"><path class="cls-1" d="M89.16,136.14l-21.4-26.48.09.11a6.28,6.28,0,0,0,3.11,2,14.7,14.7,0,0,0,4.59.4,11.09,11.09,0,0,0,6.79-2.35c1.66-1.41,2.65-3.61,3-6.58l21.4,26.48c-.33,3-1.32,5.17-3,6.58A11.09,11.09,0,0,1,97,138.61a14.7,14.7,0,0,1-4.59-.4,6.21,6.21,0,0,1-3.1-2A.52.52,0,0,1,89.16,136.14Z"/></clipPath><clipPath id="clip-path-23" transform="translate(0 0)"><path class="cls-1" d="M58.93,115.38A11.88,11.88,0,0,0,60.45,117q10.69,13.24,21.4,26.48a11.88,11.88,0,0,1-1.52-1.57Z"/></clipPath><clipPath id="clip-path-24" transform="translate(0 0)"><path class="cls-1" d="M67.76,109.66A9,9,0,0,1,66.12,106q10.71,13.24,21.41,26.48a8.81,8.81,0,0,0,1.63,3.68Z"/></clipPath><clipPath id="clip-path-25" transform="translate(0 0)"><path class="cls-1" d="M87.53,132.46,66.15,106,74,115.78l13.48,16.68Z"/></clipPath><clipPath id="clip-path-26" transform="translate(0 0)"><path class="cls-1" d="M140,70l21.4,26.48a14.39,14.39,0,0,0-1.83-1.91A17.15,17.15,0,0,0,152.7,91a28,28,0,0,0-9-.84,29.22,29.22,0,0,0-9,1.78,20,20,0,0,0-6.87,4.28,18.73,18.73,0,0,0-4.41,6.68,25,25,0,0,0-1.6,9.06l-21.4-26.48a25,25,0,0,1,1.6-9.06,18.73,18.73,0,0,1,4.41-6.68,20,20,0,0,1,6.87-4.28,29.22,29.22,0,0,1,9-1.78,28,28,0,0,1,9,.84,17.15,17.15,0,0,1,6.85,3.56A15.05,15.05,0,0,1,140,70Z"/></clipPath><clipPath id="clip-path-27" transform="translate(0 0)"><path class="cls-1" d="M66.12,106a27.35,27.35,0,0,1-.51-5.9L87,126.56a27.35,27.35,0,0,0,.51,5.9Q76.84,119.25,66.15,106Z"/></clipPath><clipPath id="clip-path-28" transform="translate(0 0)"><path class="cls-1" d="M96.21,81.84a19.39,19.39,0,0,0-1.47-6.66l2.5,3.1,2.65,3.28,2.76,3.4,2.8,3.47,2.8,3.46,2.75,3.4,2.64,3.28,2.5,3.09a19.39,19.39,0,0,1,1.47,6.66C111.19,100.38,99.89,91.37,96.21,81.84Z"/></clipPath><clipPath id="clip-path-29" transform="translate(0 0)"><path class="cls-1" d="M80.33,141.86l-21.4-26.48a14.66,14.66,0,0,1-2.35-4.25,25.06,25.06,0,0,1-1.27-8.73l21.4,26.48A25.06,25.06,0,0,0,78,137.61,14.66,14.66,0,0,0,80.33,141.86Z"/></clipPath><clipPath id="clip-path-30" transform="translate(0 0)"><path class="cls-1" d="M94.74,75.18a14.19,14.19,0,0,0-2-3.38l21.41,26.48a14.49,14.49,0,0,1,2,3.38l-1.23-1.52L104,86.68l-2.78-3.44-1.37-1.69c-.79-1-1.85-2.3-2.65-3.28A33.43,33.43,0,0,1,94.74,75.18Z"/></clipPath><clipPath id="clip-path-31" transform="translate(0 0)"><path class="cls-1" d="M83.89,77.32l21.4,26.48a10.75,10.75,0,0,1,2,5.06L85.86,82.38A10.75,10.75,0,0,0,83.89,77.32Z"/></clipPath><clipPath id="clip-path-32" transform="translate(0 0)"><path class="cls-1" d="M98,101.45,87.3,88.21q5.36,6.62,10.7,13.24Z"/></clipPath><clipPath id="clip-path-33" transform="translate(0 0)"><path class="cls-1" d="M89.86,105,68.47,78.48Q79.16,91.73,89.87,105Z"/></clipPath><clipPath id="clip-path-34" transform="translate(0 0)"><path class="cls-1" d="M83,76.46a5.38,5.38,0,0,1,.86.86l21.4,26.48a5.38,5.38,0,0,0-.86-.86q-2.13-1.71-6.43-1.49L76.61,75,87.3,88.21,98,101.45c-3.6.19-6.32,1.36-8.13,3.5q-10.7-13.23-21.4-26.47L71,81.57l2.65,3.28,2.75,3.4,2.8,3.47L89.86,105q-2.72,3.22-2.76,10.33L65.69,88.8q.06-7.11,2.78-10.33C70.28,76.33,73,75.16,76.6,75Q80.91,74.74,83,76.46Z"/></clipPath><clipPath id="clip-path-35" transform="translate(0 0)"><path class="cls-1" d="M92.71,71.8l21.4,26.48a13.78,13.78,0,0,0-2-2q-5-4.17-14.07-3.69L76.67,66.11q9-.48,14.07,3.69A13.78,13.78,0,0,1,92.71,71.8Z"/></clipPath><clipPath id="clip-path-36" transform="translate(0 0)"><path class="cls-1" d="M76.82,113.72,55.41,87.24a25.81,25.81,0,0,1,1.5-9,17.22,17.22,0,0,1,4.21-6.44,18.83,18.83,0,0,1,6.68-4,30.34,30.34,0,0,1,8.87-1.68l21.4,26.48a30.34,30.34,0,0,0-8.87,1.68,18.83,18.83,0,0,0-6.68,4,17.22,17.22,0,0,0-4.21,6.44A25.59,25.59,0,0,0,76.82,113.72Z"/></clipPath><clipPath id="clip-path-37" transform="translate(0 0)"><path class="cls-1" d="M22.38,75.43,1,49c.1-14.83,12.44-27.54,27.49-28.33L49.87,47.1C34.82,47.89,22.48,60.6,22.38,75.43Z"/></clipPath><clipPath id="clip-path-38" transform="translate(0 0)"><path class="cls-1" d="M425,9.75l21.4,26.48a26.59,26.59,0,0,0-22.31-9.71L402.71,0A26.59,26.59,0,0,1,425,9.75Z"/></clipPath><clipPath id="clip-path-39" transform="translate(0 0)"><path class="cls-1" d="M21.4,75.49,0,49C.11,33.64,12.89,20.47,28.47,19.65l21.4,26.48C34.29,47,21.51,60.12,21.4,75.49Z"/></clipPath></defs><g id="레이어_2" data-name="레이어 2"><g id="레이어_1-2" data-name="레이어 1"><g class="cls-2"><g class="cls-3"><g class="cls-2"><path d="M423,187.18l-21.4-26.48a27.33,27.33,0,0,0,2.74-.28l21.4,26.48a27.33,27.33,0,0,1-2.74.28" transform="translate(0 0)"/><path d="M425.69,186.9l-21.4-26.48a27.77,27.77,0,0,0,3.4-.73l21.4,26.48a27.38,27.38,0,0,1-3.4.73" transform="translate(0 0)"/><path d="M429.09,186.17l-21.4-26.48a28.2,28.2,0,0,0,3-1l21.4,26.48a28.2,28.2,0,0,1-3,1" transform="translate(0 0)"/><path d="M432.11,185.15l-21.4-26.48a30.07,30.07,0,0,0,2.82-1.32l21.4,26.48a30.07,30.07,0,0,1-2.82,1.32" transform="translate(0 0)"/><path d="M434.93,183.83l-21.4-26.48a30.88,30.88,0,0,0,2.75-1.66l21.4,26.48a30.88,30.88,0,0,1-2.75,1.66" transform="translate(0 0)"/><path d="M437.68,182.17l-21.4-26.48a29,29,0,0,0,2.78-2.15L440.47,180a30.44,30.44,0,0,1-2.79,2.15" transform="translate(0 0)"/><path d="M440.47,180l-21.41-26.48a30,30,0,0,0,3-3L443.49,177a31,31,0,0,1-3,3" transform="translate(0 0)"/><path d="M443.49,177l-21.4-26.48A28.1,28.1,0,0,0,429,132.37l21.41,26.48A28.16,28.16,0,0,1,443.49,177" transform="translate(0 0)"/></g></g></g><polygon class="cls-4" points="373.91 131.66 352.51 105.18 363.07 104.63 384.47 131.11 373.91 131.66"/><polygon points="450.44 158.85 429.04 132.37 429.8 26.48 451.2 52.96 450.44 158.85"/><polygon class="cls-4" points="347.04 133.07 325.64 106.59 335.19 106.09 356.59 132.57 347.04 133.07"/><polygon class="cls-5" points="397.93 87.27 376.53 60.79 376.6 52.05 398 78.53 397.93 87.27"/><polygon class="cls-4" points="384.78 87.96 363.38 61.48 376.53 60.79 397.93 87.27 384.78 87.96"/><polygon class="cls-5" points="384.47 131.11 363.07 104.63 363.38 61.48 384.78 87.96 384.47 131.11"/><g class="cls-2"><g class="cls-6"><g class="cls-2"><path d="M451.2,53,429.8,26.48a25.15,25.15,0,0,0-5.55-16.1l21.4,26.48A25.15,25.15,0,0,1,451.2,53" transform="translate(0 0)"/></g></g></g><polygon class="cls-4" points="317.83 134.6 296.43 108.12 306.98 107.57 328.38 134.05 317.83 134.6"/><polygon class="cls-7" points="373.91 131.66 352.51 105.18 352.82 62.03 374.22 88.51 373.91 131.66"/><polygon class="cls-4" points="361.07 89.2 339.67 62.72 352.82 62.03 374.22 88.51 361.07 89.2"/><polygon class="cls-7" points="347.04 133.07 325.64 106.59 307.22 74.63 328.62 101.11 347.04 133.07"/><polygon class="cls-5" points="328.38 134.05 306.98 107.57 307.22 74.63 328.62 101.11 328.38 134.05"/><polygon class="cls-7" points="317.83 134.6 296.43 108.12 296.81 56.23 318.21 82.72 317.83 134.6"/><polygon class="cls-5" points="312.82 134.86 291.42 108.38 291.49 99.52 312.89 126 312.82 134.86"/><polygon class="cls-8" points="361.13 80.47 339.73 53.99 376.6 52.05 398 78.53 361.13 80.47"/><polygon class="cls-7" points="361.07 89.2 339.67 62.72 339.73 53.99 361.13 80.47 361.07 89.2"/><polygon class="cls-5" points="356.59 132.57 335.19 106.09 335.57 54.2 356.97 80.68 356.59 132.57"/><polygon class="cls-4" points="278.69 136.65 257.28 110.17 291.42 108.38 312.82 134.86 278.69 136.65"/><polygon class="cls-7" points="346.57 114.23 325.17 87.75 325.4 54.74 346.8 81.22 346.57 114.23"/><polygon class="cls-8" points="346.8 81.22 325.4 54.74 335.57 54.2 356.97 80.68 346.8 81.22"/><polygon class="cls-8" points="289.3 127.23 267.9 100.75 291.49 99.52 312.89 126 289.3 127.23"/><polygon class="cls-5" points="309.58 113.4 288.18 86.92 288.25 78.06 309.65 104.55 309.58 113.4"/><polygon class="cls-4" points="262.34 137.51 240.94 111.03 250.44 110.53 271.85 137.01 262.34 137.51"/><polygon class="cls-4" points="289.39 114.46 267.99 87.98 288.18 86.92 309.58 113.4 289.39 114.46"/><polygon class="cls-5" points="289.3 127.23 267.9 100.75 267.99 87.98 289.39 114.46 289.3 127.23"/><polygon class="cls-5" points="346.57 114.23 325.17 87.75 306.57 55.72 327.97 82.2 346.57 114.23"/><g class="cls-2"><g class="cls-9"><g class="cls-2"><path class="cls-10" d="M424.1,27.49,402.7,1c.53,0,1.05,0,1.57,0l21.4,26.48c-.52,0-1,0-1.57,0" transform="translate(0 0)"/><path class="cls-11" d="M425.67,27.45,404.27,1a25.93,25.93,0,0,1,16.15,5.6l21.4,26.48a25.91,25.91,0,0,0-16.15-5.6" transform="translate(0 0)"/><path class="cls-10" d="M441.82,33.05,420.42,6.57a25.72,25.72,0,0,1,3,2.82l21.4,26.48a25.72,25.72,0,0,0-3-2.82" transform="translate(0 0)"/><path class="cls-12" d="M444.81,35.87,423.41,9.39c.29.33.56.65.84,1l21.4,26.48c-.27-.34-.55-.66-.84-1" transform="translate(0 0)"/></g></g></g><polygon class="cls-8" points="318.21 82.72 296.81 56.23 306.57 55.72 327.97 82.2 318.21 82.72"/><polygon class="cls-8" points="289.45 105.6 268.05 79.12 288.25 78.06 309.65 104.55 289.45 105.6"/><polygon class="cls-4" points="243.91 138.48 222.51 112 231.43 111.53 252.83 138.01 243.91 138.48"/><polygon class="cls-5" points="312.41 91.75 291.01 65.27 291.07 56.54 312.47 83.02 312.41 91.75"/><polygon class="cls-4" points="289.55 92.95 268.14 66.47 291.01 65.27 312.41 91.75 289.55 92.95"/><polygon class="cls-5" points="289.45 105.6 268.05 79.12 268.14 66.47 289.55 92.95 289.45 105.6"/><polygon class="cls-4" points="224.88 139.47 203.48 112.99 213.06 112.49 234.46 138.97 224.88 139.47"/><polygon class="cls-7" points="278.69 136.65 257.29 110.17 257.66 58.29 279.06 84.77 278.69 136.65"/><polygon class="cls-5" points="271.85 137.01 250.44 110.53 250.82 58.65 272.22 85.13 271.85 137.01"/><polygon class="cls-7" points="262.34 137.51 240.94 111.03 241.16 81.42 262.56 107.91 262.34 137.51"/><polygon class="cls-5" points="252.83 138.01 231.43 111.53 241.15 81.42 262.56 107.91 252.83 138.01"/><polygon class="cls-8" points="279.06 84.77 257.66 58.29 291.07 56.54 312.47 83.02 279.06 84.77"/><polygon points="312.47 83.02 312.41 91.75 289.55 92.95 289.45 105.6 309.65 104.55 309.58 113.4 289.39 114.46 289.3 127.23 312.89 126 312.82 134.86 278.69 136.65 279.06 84.77 312.47 83.02"/><polygon class="cls-4" points="208.54 140.33 187.14 113.85 196.65 113.35 218.05 139.83 208.54 140.33"/><polygon class="cls-7" points="243.91 138.48 222.51 112 213.27 82.83 234.67 109.31 243.91 138.48"/><polygon class="cls-5" points="234.46 138.97 213.06 112.49 213.27 82.83 234.67 109.31 234.46 138.97"/><polygon class="cls-8" points="260.89 85.72 239.49 59.24 250.82 58.65 272.22 85.13 260.89 85.72"/><polygon class="cls-7" points="248.5 124.44 227.1 97.95 239.49 59.24 260.89 85.72 248.5 124.44"/><polygon class="cls-4" points="190.1 141.3 168.7 114.82 177.63 114.35 199.03 140.83 190.1 141.3"/><polygon class="cls-4" points="171.09 142.29 149.69 115.81 159.26 115.31 180.66 141.79 171.09 142.29"/><polygon class="cls-5" points="248.5 124.44 227.1 97.95 215.2 60.51 236.6 86.99 248.5 124.44"/><polygon class="cls-7" points="224.88 139.47 203.48 112.99 203.86 61.11 225.26 87.59 224.88 139.47"/><polygon class="cls-5" points="218.05 139.83 196.65 113.35 197.02 61.47 218.43 87.94 218.05 139.83"/><polygon class="cls-7" points="208.54 140.33 187.14 113.85 187.35 84.25 208.75 110.72 208.54 140.33"/><polygon class="cls-5" points="199.03 140.83 177.63 114.35 187.35 84.24 208.75 110.72 199.03 140.83"/><polygon class="cls-8" points="225.26 87.59 203.86 61.11 215.2 60.51 236.6 86.99 225.26 87.59"/><g class="cls-2"><g class="cls-13"><g class="cls-2"><path class="cls-14" d="M150.18,143.69l-21.4-26.48c.74-.2,1.45-.44,2.15-.7l.45-.18,21.4,26.48-.45.18c-.69.26-1.41.5-2.15.7" transform="translate(0 0)"/></g></g></g><polygon class="cls-7" points="190.1 141.3 168.7 114.82 159.48 85.64 180.88 112.13 190.1 141.3"/><polygon class="cls-5" points="180.66 141.79 159.26 115.31 159.48 85.64 180.88 112.13 180.66 141.79"/><polygon class="cls-7" points="194.7 127.25 173.3 100.78 185.68 62.06 207.09 88.54 194.7 127.25"/><polygon class="cls-5" points="194.7 127.25 173.3 100.78 161.39 63.33 182.79 89.81 194.7 127.25"/><polygon class="cls-7" points="171.09 142.29 149.69 115.81 150.06 63.93 171.46 90.41 171.09 142.29"/><g class="cls-2"><g class="cls-15"><g class="cls-2"><path class="cls-16" d="M160.42,137.49,139,111a19.18,19.18,0,0,0,3.25-5.4,24.43,24.43,0,0,0,1.63-9l21.4,26.48a24.65,24.65,0,0,1-1.62,9,19.44,19.44,0,0,1-3.26,5.4" transform="translate(0 0)"/></g></g></g><g class="cls-2"><g class="cls-17"><g class="cls-2"><path class="cls-16" d="M160.42,137.49,139,111a19.18,19.18,0,0,0,3.25-5.4,24.43,24.43,0,0,0,1.63-9l21.4,26.48a24.65,24.65,0,0,1-1.62,9,19.44,19.44,0,0,1-3.26,5.4" transform="translate(0 0)"/></g></g></g><g class="cls-2"><g class="cls-18"><g class="cls-2"><path class="cls-16" d="M160.42,137.49,139,111a19.18,19.18,0,0,0,3.25-5.4,24.43,24.43,0,0,0,1.63-9l21.4,26.48a24.65,24.65,0,0,1-1.62,9,19.44,19.44,0,0,1-3.26,5.4" transform="translate(0 0)"/></g></g></g><polygon class="cls-8" points="207.09 88.54 185.68 62.06 197.03 61.47 218.43 87.94 207.09 88.54"/><g class="cls-2"><g class="cls-19"><g class="cls-2"><path class="cls-11" d="M128,140.76l-21.4-26.48a17.73,17.73,0,0,0,6.37,3.17,26.57,26.57,0,0,0,7,.89l21.4,26.48a26.63,26.63,0,0,1-7-.89,17.73,17.73,0,0,1-6.37-3.17" transform="translate(0 0)"/></g></g></g><polygon points="48.72 206.79 27.32 180.31 401.55 160.7 422.95 187.18 48.72 206.79"/><polygon class="cls-5" points="165.3 123.09 143.9 96.61 143.99 83.24 165.39 109.72 165.3 123.09"/><g class="cls-2"><g class="cls-20"><g class="cls-2"><path class="cls-12" d="M125.72,138.48,104.32,112c.16.2.32.4.49.59l21.4,26.48c-.17-.19-.33-.39-.49-.59" transform="translate(0 0)"/><path class="cls-10" d="M126.21,139.07l-21.4-26.48a15.66,15.66,0,0,0,1.37,1.33l.44.36L128,140.76l-.44-.36a15.66,15.66,0,0,1-1.37-1.33" transform="translate(0 0)"/><path class="cls-11" d="M128,140.76l-21.4-26.48a17.73,17.73,0,0,0,6.37,3.17,26.57,26.57,0,0,0,7,.89l21.4,26.48a26.63,26.63,0,0,1-7-.89,17.73,17.73,0,0,1-6.37-3.17" transform="translate(0 0)"/><path class="cls-10" d="M141.4,144.82,120,118.34c.63,0,1.27,0,1.93,0a33,33,0,0,0,3.38-.34l21.4,26.48a33,33,0,0,1-3.38.34c-.66,0-1.3,0-1.93,0" transform="translate(0 0)"/><path class="cls-12" d="M146.71,144.43,125.31,118a28.78,28.78,0,0,0,3.47-.74l21.4,26.48a28.78,28.78,0,0,1-3.47.74" transform="translate(0 0)"/><path class="cls-14" d="M150.18,143.69l-21.4-26.48c.74-.2,1.45-.44,2.15-.7l.45-.18,21.4,26.48-.45.18c-.69.26-1.41.5-2.15.7" transform="translate(0 0)"/><path class="cls-21" d="M152.78,142.81l-21.4-26.48a20.72,20.72,0,0,0,2.18-1L155,141.8a20.72,20.72,0,0,1-2.18,1" transform="translate(0 0)"/><path class="cls-22" d="M155,141.8l-21.4-26.48a19.73,19.73,0,0,0,1.89-1.14l21.4,26.48A19.73,19.73,0,0,1,155,141.8" transform="translate(0 0)"/><path class="cls-23" d="M156.85,140.66l-21.4-26.48a21,21,0,0,0,1.76-1.35l21.4,26.48a19.51,19.51,0,0,1-1.76,1.35" transform="translate(0 0)"/><path class="cls-24" d="M158.61,139.31l-21.4-26.48.62-.57c.42-.4.81-.81,1.19-1.25l21.4,26.48c-.38.44-.77.85-1.19,1.25l-.62.57" transform="translate(0 0)"/><path class="cls-16" d="M160.42,137.49,139,111a19.18,19.18,0,0,0,3.25-5.4,24.43,24.43,0,0,0,1.63-9l21.4,26.48a24.65,24.65,0,0,1-1.62,9,19.44,19.44,0,0,1-3.26,5.4" transform="translate(0 0)"/></g></g></g><g class="cls-2"><g class="cls-25"><g class="cls-2"><path class="cls-26" d="M134.53,133l-21.4-26.48a3.22,3.22,0,0,0,.24.28l21.4,26.48-.24-.28" transform="translate(0 0)"/><path class="cls-27" d="M134.77,133.31l-21.4-26.48.21.23a8.72,8.72,0,0,0,.71.64l21.4,26.48c-.25-.2-.48-.42-.71-.64l-.21-.23" transform="translate(0 0)"/><path class="cls-28" d="M135.69,134.18l-21.4-26.48a10.46,10.46,0,0,0,6.69,2l21.4,26.48a10.48,10.48,0,0,1-6.69-2" transform="translate(0 0)"/><path class="cls-27" d="M142.38,136.2,121,109.72l1,0c.59,0,1.16-.09,1.7-.17L145.09,136c-.54.08-1.11.14-1.7.17l-1,0" transform="translate(0 0)"/><path class="cls-26" d="M145.09,136l-21.4-26.48a14.93,14.93,0,0,0,1.72-.36l21.4,26.48a14.93,14.93,0,0,1-1.72.36" transform="translate(0 0)"/><path class="cls-29" d="M146.81,135.64l-21.4-26.48a12.62,12.62,0,0,0,1.27-.43l21.4,26.48a12.62,12.62,0,0,1-1.27.43" transform="translate(0 0)"/><path class="cls-30" d="M148.08,135.21l-21.4-26.48a11,11,0,0,0,1-.49l21.4,26.48a11,11,0,0,1-1,.49" transform="translate(0 0)"/><path class="cls-31" d="M149.12,134.72l-21.4-26.48a9.71,9.71,0,0,0,.94-.56l21.4,26.48a9.71,9.71,0,0,1-.94.56" transform="translate(0 0)"/><path class="cls-32" d="M150.06,134.16l-21.4-26.48c.31-.22.61-.45.9-.7L151,133.46c-.29.25-.59.48-.9.7" transform="translate(0 0)"/><path class="cls-33" d="M151,133.46,129.56,107a10.32,10.32,0,0,0,.82-.8l.13-.15,21.4,26.48-.13.15a10.32,10.32,0,0,1-.82.8" transform="translate(0 0)"/><path class="cls-34" d="M151.91,132.51,130.51,106q2.79-3.24,2.84-10.14l21.41,26.48q-.06,6.9-2.85,10.14" transform="translate(0 0)"/></g></g></g><polygon class="cls-7" points="154.75 122.37 133.35 95.89 133.43 85.25 154.83 111.73 154.75 122.37"/><g class="cls-2"><g class="cls-35"><g class="cls-2"><path class="cls-16" d="M134.53,133l-21.4-26.48c-1.62-2-2.41-5.15-2.38-9.47l21.4,26.48c0,4.32.76,7.47,2.38,9.47" transform="translate(0 0)"/></g></g></g><g class="cls-2"><g class="cls-36"><g class="cls-2"><path class="cls-16" d="M113.16,140.53l-21.4-26.48a15.86,15.86,0,0,0,2.46-3.86,20.52,20.52,0,0,0,1.71-7.54l21.4,26.48a20.72,20.72,0,0,1-1.7,7.54,16.2,16.2,0,0,1-2.47,3.86" transform="translate(0 0)"/></g></g></g><polygon class="cls-8" points="171.46 90.41 150.06 63.93 161.39 63.33 182.79 89.81 171.46 90.41"/><polygon points="218.43 87.94 218.05 139.83 208.54 140.33 208.75 110.72 199.03 140.83 190.1 141.3 180.88 112.13 180.66 141.79 171.09 142.29 171.46 90.41 182.79 89.81 194.7 127.25 207.09 88.54 218.43 87.94"/><g class="cls-2"><g class="cls-37"><g class="cls-2"><path class="cls-16" d="M165.39,109.72,144,83.24a23.06,23.06,0,0,0-1.49-8.9A16.79,16.79,0,0,0,140,70l21.4,26.48a16.79,16.79,0,0,1,2.52,4.31,23.06,23.06,0,0,1,1.49,8.9" transform="translate(0 0)"/></g></g></g><g class="cls-2"><g class="cls-38"><g class="cls-2"><path class="cls-34" d="M154.83,111.73l-21.4-26.48q0-6.51-2.38-9.51l21.4,26.48q2.43,3,2.38,9.51" transform="translate(0 0)"/></g></g></g><g class="cls-2"><g class="cls-39"><g class="cls-2"><path class="cls-16" d="M113.16,140.53l-21.4-26.48a15.86,15.86,0,0,0,2.46-3.86,20.52,20.52,0,0,0,1.71-7.54l21.4,26.48a20.72,20.72,0,0,1-1.7,7.54,16.2,16.2,0,0,1-2.47,3.86" transform="translate(0 0)"/></g></g></g><g class="cls-2"><g class="cls-40"><g class="cls-2"><path class="cls-34" d="M125.72,138.49,104.32,112a16.37,16.37,0,0,1-2.47-4.29,23.2,23.2,0,0,1-1.46-8.83l21.4,26.48a23.2,23.2,0,0,0,1.46,8.83,16.37,16.37,0,0,0,2.47,4.29" transform="translate(0 0)"/></g></g></g><polygon class="cls-5" points="132.15 123.56 110.75 97.08 110.83 86.44 132.23 112.92 132.15 123.56"/><g class="cls-2"><g class="cls-41"><g class="cls-2"><path d="M27.17,197.42,5.76,170.94l.84,1L28,198.4c-.28-.32-.56-.65-.83-1" transform="translate(0 0)"/><path d="M28,198.4,6.6,171.92a25.11,25.11,0,0,0,3,2.83L31,201.23a25.11,25.11,0,0,1-3-2.83" transform="translate(0 0)"/><path d="M31,201.23,9.6,174.75a25.85,25.85,0,0,0,16.15,5.6l21.4,26.48A25.85,25.85,0,0,1,31,201.23" transform="translate(0 0)"/><path d="M47.15,206.83l-21.4-26.48c.52,0,1,0,1.57,0l21.4,26.48c-.53,0-1,0-1.57,0" transform="translate(0 0)"/></g></g></g><g class="cls-2"><g class="cls-42"><g class="cls-2"><path class="cls-10" d="M80.76,142.36l-21.4-26.48A11,11,0,0,0,60.45,117c.14.13.3.26.45.38l21.4,26.48-.45-.38a11,11,0,0,1-1.09-1.07" transform="translate(0 0)"/><path class="cls-11" d="M82.3,143.81,60.9,117.33a14.59,14.59,0,0,0,5.9,2.76,28.84,28.84,0,0,0,6.49.69l21.4,26.48a28.69,28.69,0,0,1-6.48-.69,14.57,14.57,0,0,1-5.91-2.76" transform="translate(0 0)"/><path class="cls-10" d="M94.69,147.26l-21.4-26.48c.71,0,1.45,0,2.2-.06,1.21-.06,2.37-.18,3.49-.34l21.4,26.48c-1.12.16-2.28.28-3.49.34-.75,0-1.49.06-2.2.06" transform="translate(0 0)"/><path class="cls-12" d="M100.38,146.86,79,120.38a31.75,31.75,0,0,0,3.42-.73l21.4,26.48a31.75,31.75,0,0,1-3.42.73" transform="translate(0 0)"/><path class="cls-14" d="M103.8,146.13,82.4,119.65c.45-.13.9-.27,1.34-.42s.8-.28,1.19-.44l21.4,26.48c-.39.16-.79.31-1.19.44s-.89.29-1.34.42" transform="translate(0 0)"/><path class="cls-21" d="M106.33,145.27l-21.4-26.48a18.43,18.43,0,0,0,2-.91l21.4,26.48a18.43,18.43,0,0,1-2,.91" transform="translate(0 0)"/><path class="cls-22" d="M108.29,144.36l-21.4-26.48a18,18,0,0,0,1.71-1L110,143.33a18,18,0,0,1-1.71,1" transform="translate(0 0)"/><path class="cls-23" d="M110,143.33,88.6,116.85a16.5,16.5,0,0,0,1.48-1.13l.13-.11,21.4,26.48-.13.11a16.5,16.5,0,0,1-1.48,1.13" transform="translate(0 0)"/><path class="cls-24" d="M111.61,142.09l-21.4-26.48a15.22,15.22,0,0,0,1.55-1.56l21.4,26.48a14.27,14.27,0,0,1-1.55,1.56" transform="translate(0 0)"/><path class="cls-16" d="M113.16,140.53l-21.4-26.48a15.86,15.86,0,0,0,2.46-3.86,20.52,20.52,0,0,0,1.71-7.54l21.4,26.48a20.72,20.72,0,0,1-1.7,7.54,16.2,16.2,0,0,1-2.47,3.86" transform="translate(0 0)"/></g></g></g><polygon class="cls-8" points="106.72 129.68 85.32 103.2 95.93 102.65 117.33 129.13 106.72 129.68"/><g class="cls-2"><g class="cls-43"><g class="cls-2"><path class="cls-10" d="M143.66,99.05l-21.4-26.48,1,0L144.62,99l-1,0" transform="translate(0 0)"/><path class="cls-11" d="M144.62,99l-21.4-26.48a10.36,10.36,0,0,1,6.66,2l21.4,26.48a10.36,10.36,0,0,0-6.66-2" transform="translate(0 0)"/><path class="cls-10" d="M151.28,101.07l-21.4-26.48a8.37,8.37,0,0,1,.7.62l.23.25,21.4,26.48-.23-.25a8.37,8.37,0,0,0-.7-.62" transform="translate(0 0)"/><path class="cls-12" d="M152.21,101.94l-21.4-26.48.24.28,21.4,26.48-.24-.28" transform="translate(0 0)"/></g></g></g><g class="cls-2"><g class="cls-44"><g class="cls-2"><path class="cls-16" d="M132.23,112.92l-21.4-26.48q0-6.91,2.84-10.16l21.4,26.48q-2.79,3.24-2.84,10.16" transform="translate(0 0)"/><path class="cls-24" d="M135.07,102.76l-21.4-26.48.17-.19a8.4,8.4,0,0,1,.8-.78L136,101.79a8.4,8.4,0,0,0-.8.78l-.17.19" transform="translate(0 0)"/><path class="cls-23" d="M136,101.79l-21.4-26.48a10.71,10.71,0,0,1,.92-.71L137,101.08a10.71,10.71,0,0,0-.92.71" transform="translate(0 0)"/><path class="cls-22" d="M137,101.08,115.56,74.6c.3-.2.61-.39.94-.57l21.4,26.48c-.32.18-.64.37-.94.57" transform="translate(0 0)"/><path class="cls-21" d="M137.9,100.51,116.5,74a11.42,11.42,0,0,1,1.06-.49L139,100a11.42,11.42,0,0,0-1.06.49" transform="translate(0 0)"/><path class="cls-14" d="M139,100l-21.4-26.48a12.62,12.62,0,0,1,1.27-.43l21.4,26.48A12.62,12.62,0,0,0,139,100" transform="translate(0 0)"/><path class="cls-12" d="M140.23,99.59l-21.4-26.48a14.93,14.93,0,0,1,1.72-.37L142,99.22a14.93,14.93,0,0,0-1.72.37" transform="translate(0 0)"/><path class="cls-10" d="M142,99.22l-21.4-26.48c.55-.08,1.12-.14,1.71-.17l21.4,26.48c-.59,0-1.16.09-1.71.17" transform="translate(0 0)"/></g></g></g><polygon class="cls-7" points="121.79 125.37 100.39 98.89 100.48 85.52 121.88 112 121.79 125.37"/><g class="cls-2"><g class="cls-45"><g class="cls-2"><path class="cls-10" d="M80.76,142.36l-21.4-26.48A11,11,0,0,0,60.45,117c.14.13.3.26.45.38l21.4,26.48-.45-.38a11,11,0,0,1-1.09-1.07" transform="translate(0 0)"/></g></g></g><g class="cls-2"><g class="cls-46"><g class="cls-2"><path class="cls-26" d="M89.16,136.14l-21.4-26.48.09.11.12.14,21.4,26.48a1.34,1.34,0,0,1-.11-.14.52.52,0,0,1-.1-.11" transform="translate(0 0)"/><path class="cls-27" d="M89.37,136.39,68,109.91a6.22,6.22,0,0,0,.7.66l21.4,26.48a6.22,6.22,0,0,1-.7-.66" transform="translate(0 0)"/><path class="cls-28" d="M90.07,137.05l-21.4-26.48A6.69,6.69,0,0,0,71,111.73a13.09,13.09,0,0,0,3.49.42l21.41,26.48a13.11,13.11,0,0,1-3.5-.42,6.69,6.69,0,0,1-2.29-1.16" transform="translate(0 0)"/><path class="cls-27" d="M95.86,138.63,74.45,112.15c.36,0,.73,0,1.1,0,.56,0,1.1-.09,1.61-.16l21.4,26.48c-.51.07-1,.13-1.61.16-.37,0-.74,0-1.09,0" transform="translate(0 0)"/><path class="cls-26" d="M98.56,138.45,77.16,112a14.16,14.16,0,0,0,1.58-.34l21.4,26.48a14.16,14.16,0,0,1-1.58.34" transform="translate(0 0)"/><path class="cls-29" d="M100.14,138.11l-21.4-26.48a9.53,9.53,0,0,0,1.14-.39l21.4,26.48a9.53,9.53,0,0,1-1.14.39" transform="translate(0 0)"/><path class="cls-30" d="M101.28,137.72l-21.4-26.48a8.79,8.79,0,0,0,.93-.43l21.4,26.48a8.79,8.79,0,0,1-.93.43" transform="translate(0 0)"/><path class="cls-31" d="M102.21,137.29l-21.4-26.48a8.3,8.3,0,0,0,.81-.49L103,136.8a8.3,8.3,0,0,1-.81.49" transform="translate(0 0)"/><path class="cls-32" d="M103,136.8l-21.4-26.48q.38-.25.72-.54l0,0,21.4,26.48-.05,0q-.34.28-.72.54" transform="translate(0 0)"/><path class="cls-33" d="M103.79,136.21l-21.4-26.48a8.15,8.15,0,0,0,.72-.72l21.4,26.48a8.15,8.15,0,0,1-.72.72" transform="translate(0 0)"/><path class="cls-34" d="M104.51,135.49,83.11,109a10.42,10.42,0,0,0,2.21-5.81l21.4,26.48a10.42,10.42,0,0,1-2.21,5.81" transform="translate(0 0)"/></g></g></g><g class="cls-2"><g class="cls-47"><g class="cls-2"><path class="cls-12" d="M80.33,141.86l-21.4-26.48c.14.17.28.34.43.5l21.4,26.48c-.15-.16-.29-.33-.43-.5" transform="translate(0 0)"/><path class="cls-10" d="M80.76,142.36l-21.4-26.48A11,11,0,0,0,60.45,117c.14.13.3.26.45.38l21.4,26.48-.45-.38a11,11,0,0,1-1.09-1.07" transform="translate(0 0)"/></g></g></g><g class="cls-2"><g class="cls-48"><g class="cls-2"><path class="cls-16" d="M89.16,136.14l-21.4-26.48A9,9,0,0,1,66.12,106l21.41,26.48a8.81,8.81,0,0,0,1.63,3.68" transform="translate(0 0)"/></g></g></g><g class="cls-2"><g class="cls-49"><g class="cls-2"><path class="cls-16" d="M87.53,132.46,66.12,106a27.35,27.35,0,0,1-.51-5.9L87,126.56a26.66,26.66,0,0,0,.52,5.9" transform="translate(0 0)"/></g></g></g><g class="cls-2"><g class="cls-50"><g class="cls-2"><path class="cls-34" d="M121.88,112l-21.4-26.48a25,25,0,0,1,1.6-9.06A18.79,18.79,0,0,1,105.36,71l21.4,26.48a18.79,18.79,0,0,0-3.28,5.48,25,25,0,0,0-1.6,9.06" transform="translate(0 0)"/><path class="cls-33" d="M126.76,97.46,105.36,71c.36-.42.74-.82,1.13-1.2l.73-.67,21.4,26.48-.73.67c-.39.38-.77.78-1.13,1.2" transform="translate(0 0)"/><path class="cls-32" d="M128.62,95.59l-21.4-26.48A16.52,16.52,0,0,1,109,67.77l21.4,26.48a16.52,16.52,0,0,0-1.75,1.34" transform="translate(0 0)"/><path class="cls-31" d="M130.37,94.25,109,67.77a18.7,18.7,0,0,1,1.84-1.11l21.4,26.48a18.7,18.7,0,0,0-1.84,1.11" transform="translate(0 0)"/><path class="cls-30" d="M132.21,93.14l-21.4-26.48a20.17,20.17,0,0,1,2.1-1l21.4,26.48a20.17,20.17,0,0,0-2.1,1" transform="translate(0 0)"/><path class="cls-29" d="M134.31,92.16l-21.4-26.48.45-.18c.71-.27,1.45-.51,2.2-.72L137,91.26c-.75.21-1.49.45-2.2.72l-.45.18" transform="translate(0 0)"/><path class="cls-26" d="M137,91.26l-21.4-26.48a27.8,27.8,0,0,1,3.41-.73l21.4,26.48a27.8,27.8,0,0,0-3.41.73" transform="translate(0 0)"/><path class="cls-27" d="M140.37,90.53,119,64.05c1.08-.16,2.2-.27,3.35-.33.66,0,1.3,0,1.94,0l21.4,26.48c-.64,0-1.28,0-1.94,0-1.15.06-2.27.17-3.35.33" transform="translate(0 0)"/><path class="cls-28" d="M145.66,90.15l-21.4-26.48a26.5,26.5,0,0,1,7,.89,17.24,17.24,0,0,1,6.33,3.13L159,94.17A17.24,17.24,0,0,0,152.7,91a26.45,26.45,0,0,0-7-.89" transform="translate(0 0)"/><path class="cls-27" d="M159,94.17l-21.4-26.48.52.43a16,16,0,0,1,1.31,1.29l21.4,26.48a16,16,0,0,0-1.31-1.29l-.52-.43" transform="translate(0 0)"/><path class="cls-26" d="M160.86,95.89l-21.4-26.48c.18.2.35.41.52.62l21.4,26.48c-.17-.21-.34-.42-.52-.62" transform="translate(0 0)"/></g></g></g><g class="cls-2"><g class="cls-51"><g class="cls-2"><path class="cls-16" d="M87.53,132.46,66.12,106a27.35,27.35,0,0,1-.51-5.9L87,126.56a26.66,26.66,0,0,0,.52,5.9" transform="translate(0 0)"/></g></g></g><polygon class="cls-4" points="107.26 108.86 85.86 82.38 96.21 81.84 117.61 108.32 107.26 108.86"/><g class="cls-2"><g class="cls-52"><g class="cls-2"><path class="cls-16" d="M117.61,108.32,96.21,81.84a17.09,17.09,0,0,0-3.5-10l21.4,26.48a17.09,17.09,0,0,1,3.5,10" transform="translate(0 0)"/></g></g></g><g class="cls-2"><g class="cls-53"><g class="cls-2"><path class="cls-34" d="M80.33,141.86l-21.4-26.48a14.66,14.66,0,0,1-2.35-4.25,25.06,25.06,0,0,1-1.27-8.73l21.4,26.48A25.06,25.06,0,0,0,78,137.61a14.66,14.66,0,0,0,2.35,4.25" transform="translate(0 0)"/></g></g></g><g class="cls-2"><g class="cls-54"><g class="cls-2"><path class="cls-16" d="M117.61,108.32,96.21,81.84a17.09,17.09,0,0,0-3.5-10l21.4,26.48a17.09,17.09,0,0,1,3.5,10" transform="translate(0 0)"/></g></g></g><g class="cls-2"><g class="cls-55"><g class="cls-2"><path class="cls-34" d="M107.26,108.86,85.86,82.38a10.75,10.75,0,0,0-2-5.06l21.4,26.48a10.75,10.75,0,0,1,2,5.06" transform="translate(0 0)"/></g></g></g><polygon class="cls-5" points="87.01 126.56 65.61 100.08 65.69 88.8 87.09 115.28 87.01 126.56"/><g class="cls-2"><g class="cls-56"><g class="cls-2"><path class="cls-10" d="M96.35,101.61,75,75.13C75.48,75.05,76,75,76.6,75l1,0L99,101.42l-1,0c-.57,0-1.12.08-1.65.16" transform="translate(0 0)"/></g></g></g><g class="cls-2"><g class="cls-57"><g class="cls-2"><path class="cls-16" d="M87.1,115.28,65.69,88.8q.06-7.11,2.78-10.33l0,0,21.4,26.48,0,0q-2.73,3.22-2.77,10.33" transform="translate(0 0)"/></g></g></g><g class="cls-2"><g class="cls-58"><g class="cls-2"><path class="cls-16" d="M87.1,115.28,65.69,88.8q.06-7.11,2.78-10.33l0,0,21.4,26.48,0,0q-2.73,3.22-2.77,10.33" transform="translate(0 0)"/><path class="cls-24" d="M89.91,104.9,68.51,78.42a7.65,7.65,0,0,1,.9-.9L90.81,104a7.65,7.65,0,0,0-.9.9" transform="translate(0 0)"/><path class="cls-23" d="M90.81,104,69.41,77.52a8.8,8.8,0,0,1,.83-.65l21.4,26.48a8.8,8.8,0,0,0-.83.65" transform="translate(0 0)"/><path class="cls-22" d="M91.64,103.35,70.24,76.87a8.48,8.48,0,0,1,.88-.52l21.4,26.48a8.48,8.48,0,0,0-.88.52" transform="translate(0 0)"/><path class="cls-21" d="M92.52,102.83,71.12,76.35a8,8,0,0,1,1-.46l21.4,26.48a8,8,0,0,0-1,.46" transform="translate(0 0)"/><path class="cls-14" d="M93.5,102.37,72.1,75.89a11.46,11.46,0,0,1,1.21-.41L94.71,102a11.46,11.46,0,0,0-1.21.41" transform="translate(0 0)"/><path class="cls-12" d="M94.71,102,73.31,75.48A13.17,13.17,0,0,1,75,75.13l21.4,26.48a13.17,13.17,0,0,0-1.64.35" transform="translate(0 0)"/><path class="cls-10" d="M96.35,101.61,75,75.13C75.48,75.05,76,75,76.6,75l1,0L99,101.42l-1,0c-.57,0-1.12.08-1.65.16" transform="translate(0 0)"/><path class="cls-11" d="M99,101.42,77.6,74.94A8.52,8.52,0,0,1,83,76.46h0l21.41,26.48h0A8.52,8.52,0,0,0,99,101.42" transform="translate(0 0)"/><path class="cls-10" d="M104.44,102.94,83,76.46a5.46,5.46,0,0,1,.66.62l21.4,26.48a5.39,5.39,0,0,0-.65-.62" transform="translate(0 0)"/><path class="cls-12" d="M105.09,103.56,83.69,77.08l.2.24,21.4,26.48-.2-.24" transform="translate(0 0)"/></g></g></g><polygon class="cls-7" points="76.71 128.88 55.31 102.4 55.41 87.24 76.82 113.72 76.71 128.88"/><g class="cls-2"><g class="cls-59"><g class="cls-2"><path class="cls-27" d="M98.07,92.59,76.67,66.11c.64,0,1.26,0,1.87,0l21.4,26.48c-.61,0-1.23,0-1.87,0" transform="translate(0 0)"/><path class="cls-28" d="M99.94,92.54,78.54,66.06q7.53,0,12,3.57l21.4,26.48q-4.46-3.56-12-3.57" transform="translate(0 0)"/><path class="cls-27" d="M111.93,96.11,90.53,69.63l.21.17a14.62,14.62,0,0,1,1.5,1.44l21.4,26.48a14.62,14.62,0,0,0-1.5-1.44l-.21-.17" transform="translate(0 0)"/><path class="cls-26" d="M113.64,97.72,92.24,71.24c.16.18.32.37.47.56l21.4,26.48c-.15-.19-.31-.38-.47-.56" transform="translate(0 0)"/></g></g></g><g class="cls-2"><g class="cls-60"><g class="cls-2"><path class="cls-34" d="M76.82,113.72,55.41,87.24a25.81,25.81,0,0,1,1.5-9A17.5,17.5,0,0,1,60,73l21.4,26.48a17.5,17.5,0,0,0-3.11,5.28,25.59,25.59,0,0,0-1.49,9" transform="translate(0 0)"/><path class="cls-33" d="M81.42,99.48,60,73a15.17,15.17,0,0,1,1.1-1.16c.19-.18.38-.36.58-.53L83.1,97.79l-.58.53a15.17,15.17,0,0,0-1.1,1.16" transform="translate(0 0)"/><path class="cls-32" d="M83.1,97.79,61.7,71.31A17.33,17.33,0,0,1,63.36,70l21.4,26.48a17.33,17.33,0,0,0-1.66,1.27" transform="translate(0 0)"/><path class="cls-31" d="M84.76,96.52,63.36,70A18.73,18.73,0,0,1,65.1,69L86.5,95.46a20.15,20.15,0,0,0-1.74,1.06" transform="translate(0 0)"/><path class="cls-30" d="M86.5,95.46,65.1,69a21.5,21.5,0,0,1,2-.93L88.5,94.53a21.5,21.5,0,0,0-2,.93" transform="translate(0 0)"/><path class="cls-29" d="M88.5,94.53,67.1,68.05l.7-.26c.58-.21,1.18-.4,1.8-.58L91,93.69c-.62.18-1.22.37-1.8.58l-.7.26" transform="translate(0 0)"/><path class="cls-26" d="M91,93.69,69.6,67.21a30.08,30.08,0,0,1,3.53-.75l21.4,26.48a30.52,30.52,0,0,0-3.53.75" transform="translate(0 0)"/><path class="cls-27" d="M94.53,92.94,73.13,66.46a35.36,35.36,0,0,1,3.54-.35l21.4,26.48a35.36,35.36,0,0,0-3.54.35" transform="translate(0 0)"/></g></g></g><polygon class="cls-4" points="49.87 47.1 28.47 20.62 402.7 1.01 424.1 27.49 49.87 47.1"/><g class="cls-2"><g class="cls-61"><g class="cls-2"><path class="cls-16" d="M22.38,75.43,1,49a28.15,28.15,0,0,1,7-18.13L29.33,57.3a28.15,28.15,0,0,0-6.95,18.13" transform="translate(0 0)"/><path class="cls-24" d="M29.33,57.3,7.93,30.82a29.79,29.79,0,0,1,3-3l21.4,26.48a29.79,29.79,0,0,0-3,3" transform="translate(0 0)"/><path class="cls-23" d="M32.35,54.27,11,27.79a31,31,0,0,1,2.79-2.16l21.4,26.48a31,31,0,0,0-2.79,2.16" transform="translate(0 0)"/><path class="cls-22" d="M35.14,52.11,13.74,25.63A30.4,30.4,0,0,1,16.49,24l21.4,26.48a30.4,30.4,0,0,0-2.75,1.66" transform="translate(0 0)"/><path class="cls-21" d="M37.89,50.45,16.49,24a28.93,28.93,0,0,1,2.82-1.32l21.4,26.48a28.93,28.93,0,0,0-2.82,1.32" transform="translate(0 0)"/><path class="cls-14" d="M40.71,49.13,19.31,22.65a30.6,30.6,0,0,1,3-1l21.4,26.48a30.6,30.6,0,0,0-3,1" transform="translate(0 0)"/><path class="cls-12" d="M43.73,48.11,22.33,21.63a27.38,27.38,0,0,1,3.4-.73l21.4,26.48a27.77,27.77,0,0,0-3.4.73" transform="translate(0 0)"/><path class="cls-10" d="M47.13,47.38,25.73,20.9a27.33,27.33,0,0,1,2.74-.28L49.87,47.1a27.33,27.33,0,0,0-2.74.28" transform="translate(0 0)"/></g></g></g><path d="M424.11,26.52c15.59-.82,28.17,11,28.06,26.39l-.76,105.89c-.11,15.36-12.88,28.52-28.46,29.34L48.71,207.75c-15.58.82-28.18-11-28.07-26.38L21.4,75.49C21.51,60.12,34.29,47,49.87,46.13Zm26.33,132.33L451.2,53c.1-14.84-12.05-26.26-27.1-25.47L49.87,47.1c-15,.79-27.39,13.5-27.49,28.33l-.76,105.89c-.11,14.84,12.05,26.26,27.1,25.47L423,187.18c15.06-.79,27.38-13.49,27.49-28.33" transform="translate(0 0)"/><polygon points="356.97 80.68 356.59 132.57 347.04 133.07 328.62 101.11 328.38 134.05 317.83 134.6 318.21 82.72 327.97 82.2 346.57 114.23 346.8 81.22 356.97 80.68"/><path class="cls-62" d="M143.66,99.05c3.6-.19,6.37.7,8.32,2.64s2.89,5.3,2.85,10l-.08,10.64c0,4.71-1,8.13-3,10.29s-4.74,3.32-8.39,3.51-6.49-.69-8.41-2.63-2.86-5.28-2.83-10l.08-10.64q0-7.11,3-10.35C137.21,100.42,140,99.24,143.66,99.05Z" transform="translate(0 0)"/><path d="M163.9,100.82a23.06,23.06,0,0,1,1.49,8.9l-.09,13.37a24.65,24.65,0,0,1-1.62,9,18.92,18.92,0,0,1-4.45,6.65,20.39,20.39,0,0,1-6.9,4.25,29.67,29.67,0,0,1-9,1.78,28,28,0,0,1-8.94-.84,17.39,17.39,0,0,1-6.81-3.53,15.57,15.57,0,0,1-4.33-6.2,23.2,23.2,0,0,1-1.46-8.83l.09-13.37a25,25,0,0,1,1.6-9.06,18.73,18.73,0,0,1,4.41-6.68A20,20,0,0,1,134.76,92a29.22,29.22,0,0,1,9-1.78,28,28,0,0,1,9,.84,17.15,17.15,0,0,1,6.85,3.56A16.32,16.32,0,0,1,163.9,100.82Zm-9.14,21.55.07-10.64c0-4.74-.92-8.09-2.85-10s-4.72-2.83-8.32-2.64-6.45,1.37-8.42,3.52-3,5.6-3,10.35l-.08,10.64q0,7,2.83,10c1.92,1.94,4.72,2.83,8.41,2.63s6.45-1.37,8.39-3.51,2.94-5.58,3-10.29" transform="translate(0 0)"/><path class="cls-62" d="M424.1,27.49,49.87,47.1c-15,.79-27.39,13.5-27.49,28.33l-.76,105.89c-.11,14.84,12.05,26.26,27.1,25.47L423,187.18c15.06-.79,27.38-13.49,27.49-28.33L451.2,53C451.3,38.12,439.15,26.7,424.1,27.49Zm-336.58,105a8.61,8.61,0,0,0,1.74,3.79,6.21,6.21,0,0,0,3.1,2,14.7,14.7,0,0,0,4.59.4,11.09,11.09,0,0,0,6.79-2.35q2.49-2.13,3-6.58l10.61-.55a20.72,20.72,0,0,1-1.7,7.54,15.87,15.87,0,0,1-4.15,5.53,19,19,0,0,1-6.34,3.51,30.43,30.43,0,0,1-8.25,1.49,31.18,31.18,0,0,1-8.68-.63,14.32,14.32,0,0,1-6.36-3.14A13.74,13.74,0,0,1,78,137.61a25.06,25.06,0,0,1-1.27-8.73l.11-15.16a25.59,25.59,0,0,1,1.49-9,17.22,17.22,0,0,1,4.21-6.44,18.83,18.83,0,0,1,6.68-4,30.34,30.34,0,0,1,8.87-1.68q9-.48,14.07,3.69t5.47,12l-10.35.54q-.69-4.22-2.83-5.92T98,101.45c-3.6.19-6.32,1.36-8.13,3.5s-2.74,5.59-2.78,10.33L87,126.56a27.35,27.35,0,0,0,.51,5.9m77.78-9.37a24.43,24.43,0,0,1-1.63,9,18.77,18.77,0,0,1-4.44,6.65,20.39,20.39,0,0,1-6.9,4.25,29.67,29.67,0,0,1-9,1.78,28,28,0,0,1-8.94-.84,17.39,17.39,0,0,1-6.81-3.53,15.57,15.57,0,0,1-4.33-6.2,23.2,23.2,0,0,1-1.46-8.83l.09-13.37a25,25,0,0,1,1.6-9.06,18.73,18.73,0,0,1,4.41-6.68A20,20,0,0,1,134.76,92a29.22,29.22,0,0,1,9-1.78,28,28,0,0,1,9,.84,17.15,17.15,0,0,1,6.85,3.56,16.32,16.32,0,0,1,4.35,6.22,23.06,23.06,0,0,1,1.49,8.9l-.09,13.37m52.75,16.74-9.51.5.21-29.61L199,140.83l-8.93.47-9.22-29.17-.22,29.66-9.57.5.37-51.88,11.33-.6,11.91,37.44,12.38-38.71,11.35-.6-.38,51.89m53.8-2.82-9.51.5.22-29.6L252.83,138l-8.92.47-9.24-29.17L234.46,139l-9.58.5.38-51.88L236.6,87l11.9,37.45,12.39-38.72,11.33-.59L271.85,137m41-2.15-34.13,1.79.37-51.88L312.47,83l-.06,8.73L289.54,93l-.09,12.65,20.2-1-.07,8.85-20.19,1.06-.09,12.77L312.89,126l-.07,8.86m43.77-2.29-9.55.5-18.42-32-.24,32.94-10.55.55.38-51.88L328,82.2l18.6,32,.23-33L357,80.68l-.38,51.89m41.34-45.3L384.78,88l-.31,43.15-10.56.55.31-43.15-13.15.69.06-8.73L398,78.53l-.07,8.74" transform="translate(0 0)"/><polygon points="398 78.53 397.93 87.27 384.78 87.96 384.47 131.11 373.91 131.66 374.22 88.51 361.07 89.2 361.13 80.47 398 78.53"/><g class="cls-2"><g class="cls-63"><g class="cls-2"><path d="M424.11,26.52,402.71,0c.54,0,1.09,0,1.62,0l21.41,26.48c-.54,0-1.08,0-1.63,0" transform="translate(0 0)"/><path d="M425.74,26.48,404.33,0a26.79,26.79,0,0,1,16.72,5.8l21.4,26.48a26.76,26.76,0,0,0-16.71-5.8" transform="translate(0 0)"/><path d="M442.45,32.28,421.05,5.8a26,26,0,0,1,3.1,2.93l21.4,26.48a25.28,25.28,0,0,0-3.1-2.93" transform="translate(0 0)"/><path d="M445.55,35.21,424.15,8.73q.45.5.87,1l21.4,26.48q-.42-.52-.87-1" transform="translate(0 0)"/></g></g></g><polygon points="272.22 85.13 271.85 137.01 262.34 137.51 262.56 107.91 252.83 138.01 243.91 138.48 234.67 109.31 234.46 138.97 224.88 139.47 225.26 87.59 236.6 86.99 248.5 124.44 260.89 85.72 272.22 85.13"/><path d="M98.07,92.59q9-.48,14.07,3.69t5.47,12l-10.35.54q-.69-4.22-2.83-5.92T98,101.45c-3.6.19-6.32,1.36-8.13,3.5s-2.74,5.59-2.77,10.33L87,126.57a26.62,26.62,0,0,0,.52,5.89,8.49,8.49,0,0,0,1.73,3.79,6.21,6.21,0,0,0,3.1,2,14.7,14.7,0,0,0,4.59.4,11.09,11.09,0,0,0,6.79-2.35c1.66-1.41,2.65-3.61,3-6.58l10.61-.55a20.72,20.72,0,0,1-1.7,7.54,15.75,15.75,0,0,1-4.15,5.53,19,19,0,0,1-6.34,3.51,30.43,30.43,0,0,1-8.25,1.49,31.18,31.18,0,0,1-8.68-.63,14.32,14.32,0,0,1-6.36-3.14A13.74,13.74,0,0,1,78,137.61a25.06,25.06,0,0,1-1.27-8.73l.11-15.16a25.59,25.59,0,0,1,1.49-9,17.22,17.22,0,0,1,4.21-6.44,18.83,18.83,0,0,1,6.68-4A30.34,30.34,0,0,1,98.07,92.59Z" transform="translate(0 0)"/><polygon points="49.87 46.13 28.47 19.65 402.71 0.04 424.11 26.52 49.87 46.13"/><g class="cls-2"><g class="cls-64"><g class="cls-2"><path d="M21.4,75.49,0,49A29.15,29.15,0,0,1,7.2,30.22L28.6,56.7a29.15,29.15,0,0,0-7.2,18.79" transform="translate(0 0)"/><path d="M28.6,56.7,7.2,30.22a33.24,33.24,0,0,1,3.13-3.15L31.74,53.55A32.19,32.19,0,0,0,28.6,56.7" transform="translate(0 0)"/><path d="M31.74,53.55,10.33,27.07a31.43,31.43,0,0,1,2.9-2.23l21.4,26.48a30,30,0,0,0-2.89,2.23" transform="translate(0 0)"/><path d="M34.63,51.32,13.23,24.84a29.12,29.12,0,0,1,2.85-1.72L37.48,49.6a29.12,29.12,0,0,0-2.85,1.72" transform="translate(0 0)"/><path d="M37.48,49.6,16.08,23.12A29.91,29.91,0,0,1,19,21.75L40.4,48.23a29.91,29.91,0,0,0-2.92,1.37" transform="translate(0 0)"/><path d="M40.4,48.23,19,21.75a32.7,32.7,0,0,1,3.12-1.06l21.4,26.48c-1.06.3-2.1.66-3.12,1.06" transform="translate(0 0)"/><path d="M43.52,47.17,22.12,20.69a29.75,29.75,0,0,1,3.52-.75L47.05,46.42a29.49,29.49,0,0,0-3.53.75" transform="translate(0 0)"/><path d="M47.05,46.42,25.64,19.94c.94-.14,1.88-.24,2.83-.29l21.4,26.48c-.95,0-1.89.15-2.82.29" transform="translate(0 0)"/></g></g></g></g></g></svg>