<svg xmlns="http://www.w3.org/2000/svg" xmlns:xlink="http://www.w3.org/1999/xlink" viewBox="0 0 291 148.53"><defs><clipPath id="a"><path d="M269.3,78.22l1.5,5.06a1.85,1.85,0,0,1,.07.62,3.26,3.26,0,0,1-.57,1.48l-1.49-5.06a3.39,3.39,0,0,0,.56-1.48A1.85,1.85,0,0,0,269.3,78.22Z" style="fill:#ccc;stroke:#000;stroke-linecap:round;stroke-linejoin:round;stroke-width:0.75px"/></clipPath></defs><polygon points="290.5 126.8 196.5 133.47 196.5 7.21 290.5 0.54 290.5 126.8" style="fill:#4d4d4d;stroke:#000;stroke-miterlimit:10"/><polygon points="94.5 141.31 0.5 147.99 0.5 21.73 94.5 15.05 94.5 141.31" style="fill:#0a0a0a;stroke:#000;stroke-miterlimit:10"/><polygon points="192.5 134.06 98.5 140.73 98.5 14.47 192.5 7.79 192.5 134.06" style="fill:#e6e6e6;stroke:#000;stroke-miterlimit:10"/><polygon points="170.47 96.5 159.94 90.77 155.08 81.73 165.6 87.46 170.47 96.5" style="fill:#ccc;stroke:#000;stroke-linecap:round;stroke-linejoin:round;stroke-width:0.75px"/><polygon points="154 98.81 143.47 93.09 151.84 77.33 162.36 83.05 154 98.81" style="fill:#ccc;stroke:#000;stroke-linecap:round;stroke-linejoin:round;stroke-width:0.75px"/><polygon points="165.62 77.84 155.1 72.11 159.82 62.13 170.35 67.85 165.62 77.84" style="fill:#ccc;stroke:#000;stroke-linecap:round;stroke-linejoin:round;stroke-width:0.75px"/><polygon points="170.35 67.85 159.82 62.13 165.99 61.26 176.51 66.98 170.35 67.85" style="fill:#fff;stroke:#000;stroke-linecap:round;stroke-linejoin:round;stroke-width:0.75px"/><polygon points="154.52 70.08 144 64.35 150.44 63.45 160.96 69.17 154.52 70.08" style="fill:#fff;stroke:#000;stroke-linecap:round;stroke-linejoin:round;stroke-width:0.75px"/><polygon points="162.36 83.05 151.84 77.33 144 64.35 154.52 70.08 162.36 83.05" style="fill:#ccc;stroke:#000;stroke-linecap:round;stroke-linejoin:round;stroke-width:0.75px"/><polygon points="176.51 66.98 168.63 81.92 176.97 95.58 170.47 96.5 165.6 87.46 160.3 97.93 154 98.81 162.36 83.05 154.52 70.08 160.96 69.17 165.62 77.84 170.35 67.85 176.51 66.98" style="fill:#fff;stroke:#000;stroke-linecap:round;stroke-linejoin:round;stroke-width:0.75px"/><polygon points="140.53 72.92 130 67.2 135.52 66.42 146.05 72.15 140.53 72.92" style="fill:#fff;stroke:#000;stroke-linecap:round;stroke-linejoin:round;stroke-width:0.75px"/><polygon points="125.08 75.09 114.55 69.37 120.11 68.59 130.63 74.31 125.08 75.09" style="fill:#fff;stroke:#000;stroke-linecap:round;stroke-linejoin:round;stroke-width:0.75px"/><path d="M140.27,93.68l.09-.41c0-.08,0-.16,0-.25s0-.31,0-.47a1.79,1.79,0,0,0,0-.23q0-.36,0-.75l0-18.78-10-5.46V86s-.55.49-.56.72c0,.07,0,.15,0,.22s0,.31,0,.46a2,2,0,0,0,0,.24c0,.13-.05.27-.08.4l-.06.22-.12.38-.06.19a4.58,4.58,0,0,1-.27.59l-.09.17-.17.28-.24.32a3.58,3.58,0,0,1-.26.29l-.17.18-.18.16-.27.21-.21.15-.14.09-.3.17-.15.07-.29.13a1.45,1.45,0,0,1-.22.09l-.33.12-.22.07-.39.1-.2,0c-.12,0-.91.07-.91.07l0-17.13-10-5.46,0,19.13a11.86,11.86,0,0,0,.47,3.6,7.06,7.06,0,0,0,1.49,2.71,6.21,6.21,0,0,0,1.68,1.33l10,5.46a6.11,6.11,0,0,1-1.69-1.33A7,7,0,0,1,125,97.68a12,12,0,0,1-.48-3.59v-.8l7.91,4.3.12.07.43.17.09,0,.15.05a3.12,3.12,0,0,0,.44.09h0a5.86,5.86,0,0,0,.61,0h.17a5.45,5.45,0,0,0,.68,0,6.45,6.45,0,0,0,.66-.12l.2,0,.41-.1.23-.07.34-.12.23-.09.24-.1.07,0,.15-.08L138,97l.15-.09.1-.07.11-.09.28-.22.09-.07.09-.09a1.7,1.7,0,0,0,.19-.19l.09-.09.17-.2.21-.28,0-.06a2.75,2.75,0,0,0,.17-.29l.09-.13s0,0,0,0a5.83,5.83,0,0,0,.28-.62.08.08,0,0,1,0,0,.83.83,0,0,0,0-.15,2.91,2.91,0,0,0,.12-.39Z" style="fill:#ccc;stroke:#000;stroke-linecap:round;stroke-linejoin:round;stroke-width:0.75px"/><path d="M146.5,72.12l0,18.27c0,3.83-1,6.84-3,9a12.93,12.93,0,0,1-8.09,3.86,12.11,12.11,0,0,1-4.44-.15,7.55,7.55,0,0,1-4.25-2.31,7.82,7.82,0,0,1-1.63-3,13.41,13.41,0,0,1-.52-3.95l0-18.78,6-.83,0,18.5A5.49,5.49,0,0,0,131.83,97a3.75,3.75,0,0,0,3.4.93,5.85,5.85,0,0,0,4-2,6.49,6.49,0,0,0,1.25-4.25l0-18.69Z" style="fill:#fff;stroke:#000;stroke-linecap:round;stroke-linejoin:round;stroke-width:0.75px"/><polygon points="270.43 97.19 268.94 92.13 277.18 83.92 278.67 88.98 270.43 97.19" style="fill:#ccc;stroke:#000;stroke-linecap:round;stroke-linejoin:round;stroke-width:0.75px"/><polygon points="275.49 86.59 274 81.52 275.77 79.75 277.27 84.82 275.49 86.59" style="fill:#ccc;stroke:#000;stroke-linecap:round;stroke-linejoin:round;stroke-width:0.75px"/><polygon points="277.27 84.82 275.77 79.75 284.29 86.17 285.79 91.24 277.27 84.82" style="fill:#ccc;stroke:#000;stroke-linecap:round;stroke-linejoin:round;stroke-width:0.75px"/><polygon points="285.79 91.24 284.01 93 280.83 90.61 272.59 98.82 270.43 97.19 278.67 88.98 275.49 86.59 277.27 84.82 285.79 91.24" style="fill:#fff;stroke:#000;stroke-linecap:round;stroke-linejoin:round;stroke-width:0.75px"/><polygon points="267.09 88.59 265.59 83.53 267.76 85.17 269.26 90.23 267.09 88.59" style="fill:#ccc;stroke:#000;stroke-linecap:round;stroke-linejoin:round;stroke-width:0.75px"/><path d="M266.13,89.11a.59.59,0,0,0,.14-.06h0l0,0,.3-.15.09-.06.36-.22-1.5-5.06-.35.22-.1.06-.29.15-.07,0-.14.06-.14.06-.14,0-.13,0-.36.08-.09,0a1.53,1.53,0,0,1-.3,0H263l-.25,0-.1,0-.1,0-.14,0-.09,0-.14,0-.09,0-.14-.06-.08,0-.15-.09-.07,0-.22-.15-.2-.17-.06,0-.13-.13s0,0-.05,0l-.13-.16,0,0a1.27,1.27,0,0,1-.13-.19l0-.06a.34.34,0,0,1-.06-.12.25.25,0,0,1,0-.07s0-.08,0-.11,0-.09-.05-.13l1.5,5.07,0,.08s0,0,0,0l.05.11,0,.08.06.11,0,0h0l.12.2,0,0,.14.16.05.06.13.12.06.05.2.17.21.15.07,0,.15.09.09,0,.13.06.1,0,.07,0,.06,0,.1,0,.14,0,.09,0h.1l.26,0H265l.31,0h.08c.13,0,.25,0,.37-.09h0l.12,0,.14,0Z" style="fill:#ccc;stroke:#000;stroke-linecap:round;stroke-linejoin:round;stroke-width:0.75px"/><g style="isolation:isolate"><path d="M269.3,78.22l1.5,5.06a1.85,1.85,0,0,1,.07.62,3.26,3.26,0,0,1-.57,1.48l-1.49-5.06a3.39,3.39,0,0,0,.56-1.48A1.85,1.85,0,0,0,269.3,78.22Z" style="fill:#ccc"/><g style="clip-path:url(#a)"><path d="M270.3,85.38l-1.49-5.06a3.39,3.39,0,0,0,.56-1.48,1.85,1.85,0,0,0-.07-.62l1.5,5.06a1.85,1.85,0,0,1,.07.62,3.26,3.26,0,0,1-.57,1.48" style="fill:#ccc;stroke:#000;stroke-linecap:round;stroke-linejoin:round;stroke-width:0.75px"/></g><path d="M269.3,78.22l1.5,5.06a1.85,1.85,0,0,1,.07.62,3.26,3.26,0,0,1-.57,1.48l-1.49-5.06a3.39,3.39,0,0,0,.56-1.48A1.85,1.85,0,0,0,269.3,78.22Z" style="fill:none;stroke:#000;stroke-linecap:round;stroke-linejoin:round;stroke-width:0.75px"/></g><path d="M262.09,81.35l.24-.22.13-.11.23-.18.13-.11.24-.17.12-.09.29-.21.06,0,.36-.22.11-.06.26-.15.13-.07.24-.11.12-.06.46-.19.05,0,.43-.15.11,0,.32-.09.07,0,.4-.08.31,0,.48,0h.86l.3,0,.11,0,.24,0H269l.41.1.07,0,.37.11.07,0,.38.16.08,0,.35.17,0,0,.36.22.09.06.36.25.32.26.08.06.29.27h0a2.27,2.27,0,0,1,.26.28.23.23,0,0,1,.07.07,3.11,3.11,0,0,1,.23.28h0l.2.29.05.08.09.17.12.21a1.11,1.11,0,0,0,.07.16,1.43,1.43,0,0,1,.08.22,2.34,2.34,0,0,1,.09.24L272,77.66a1.42,1.42,0,0,0,0-.16l0-.08-.09-.22a.77.77,0,0,0-.07-.16,2.12,2.12,0,0,0-.11-.21l-.05-.1-.05-.08-.05-.07-.19-.29h0c-.07-.1-.15-.19-.23-.29l-.06-.07-.26-.27h0l-.3-.27-.07-.06a4.19,4.19,0,0,0-.33-.26,3.32,3.32,0,0,0-.36-.26l-.08,0-.37-.22,0,0-.34-.17-.09,0-.38-.16h-.06L268,74l-.07,0-.42-.09h-.1l-.25,0-.11,0-.3,0h-.85l-.49,0-.28,0h0l-.39.08-.07,0-.32.09h-.05l-.06,0-.44.15,0,0a3.71,3.71,0,0,0-.46.19l-.06,0-.07,0-.23.11-.14.07-.26.15-.1.06-.36.22-.06,0-.3.2-.12.09-.23.18-.14.11L261,76l-.13.11-.24.22a.52.52,0,0,0-.11.1c-.12.1-.23.21-.35.33-1.68,1.67-2.55,3.31-2.6,4.9A4.4,4.4,0,0,0,257.7,83l1.5,5.07a4.19,4.19,0,0,1-.16-1.37q.07-2.4,2.6-4.91l.34-.33Z" style="fill:#ccc;stroke:#000;stroke-linecap:round;stroke-linejoin:round;stroke-width:0.75px"/><path d="M271.58,80.13a4.67,4.67,0,0,1,2.12,3.71A4.79,4.79,0,0,1,272.48,87l-2.18-1.64a3.26,3.26,0,0,0,.57-1.48A2.24,2.24,0,0,0,269.79,82a3.14,3.14,0,0,0-2.34-.61,6.58,6.58,0,0,0-3.67,2.09A6.12,6.12,0,0,0,262,86.27a2.29,2.29,0,0,0,.95,2.52,2.85,2.85,0,0,0,1.94.61,4.23,4.23,0,0,0,2.19-.81l2.17,1.64a8.3,8.3,0,0,1-4.11,1.57,5.83,5.83,0,0,1-4.07-1.23,4.49,4.49,0,0,1-2-3.88q.07-2.4,2.6-4.91a9.26,9.26,0,0,1,5.26-2.86A6.11,6.11,0,0,1,271.58,80.13Z" style="fill:#fff;stroke:#000;stroke-linecap:round;stroke-linejoin:round;stroke-width:0.75px"/><polygon points="262.25 73.5 260.76 68.44 262.95 70.1 264.45 75.16 262.25 73.5" style="fill:#ccc;stroke:#000;stroke-linecap:round;stroke-linejoin:round;stroke-width:0.75px"/><polygon points="256.11 68.87 254.61 63.81 256.82 65.48 258.32 70.54 256.11 68.87" style="fill:#ccc;stroke:#000;stroke-linecap:round;stroke-linejoin:round;stroke-width:0.75px"/><path d="M254.91,80.67l.17-.11.09-.07.18-.15.08-.06.27-.25,6.55-6.53-1.49-5.06L254.2,75a2.84,2.84,0,0,1-.26.24l-.08.07-.18.15-.1.06-.17.12-.1.06-.17.09-.08,0-.3.11-.1,0-.15,0a.64.64,0,0,1-.2,0h0l-.19,0h-.24l-.17,0-.12,0-.08,0-.16,0-.08,0-.15-.06-.11,0-.15-.08a.31.31,0,0,1-.1,0l-.18-.1-.08,0a2.48,2.48,0,0,1-.26-.19l-.18-.14,0,0a.47.47,0,0,1-.1-.1l6.19-6.16-1.5-5.06L248,70.4a6,6,0,0,0-1.13,1.49,3.59,3.59,0,0,0-.46,1.54,3.25,3.25,0,0,0,.13,1.11L248,79.6a3.25,3.25,0,0,1-.13-1.11,3.48,3.48,0,0,1,.45-1.54,6.11,6.11,0,0,1,1.14-1.49l.24-.24L251,79.34a.14.14,0,0,0,0,.06s0,0,0,0l0,.08,0,.06a.56.56,0,0,0,.05.08s0,0,0,0l0,0,.1.15h0a1.58,1.58,0,0,0,.12.15l.05,0,.11.11.05,0,.17.15.26.18.09,0,.17.1.1.06.16.07.1,0,.12,0h0l.08,0,.16,0,.09,0h.12l.17,0h.43l.16,0h0l.15,0,.07,0h0l.3-.12h0l.07,0,.17-.09Z" style="fill:#ccc;stroke:#000;stroke-linecap:round;stroke-linejoin:round;stroke-width:0.75px"/><path d="M264.45,75.16,258,81.61a6.05,6.05,0,0,1-4,2,6.13,6.13,0,0,1-4-1.41,5.68,5.68,0,0,1-1.43-1.52,3.47,3.47,0,0,1-.19-3.73,6.11,6.11,0,0,1,1.14-1.49l6.62-6.59,2.21,1.67L251.85,77a2.69,2.69,0,0,0-1,1.91,1.88,1.88,0,0,0,.85,1.49,2.88,2.88,0,0,0,2.08.69,3.17,3.17,0,0,0,1.89-1l6.55-6.53Z" style="fill:#fff;stroke:#000;stroke-linecap:round;stroke-linejoin:round;stroke-width:0.75px"/><path d="M244.57,72.1l.11,0,.31-.17h0a3,3,0,0,0,.33-.21l.1-.07.23-.16.12-.09.21-.17.12-.1.22-.2.11-.09.33-.32c1.31-1.3,1.94-2.42,1.88-3.34a1.67,1.67,0,0,0-.06-.38l-1.5-5.06a1.69,1.69,0,0,1,.07.38c.05.92-.58,2-1.89,3.34l-.33.32-.1.09-.22.2-.13.1-.21.17-.12.09-.22.16-.11.07-.32.21h0l-.32.18-.1.05-.2.1-.42.17-.38.12H242l-.33.08-.16,0-.22,0H241l-.16,0-.22,0h-.05a1.71,1.71,0,0,1-.3-.09l0,0a1.55,1.55,0,0,1-.29-.14l0,0a2.29,2.29,0,0,1-.29-.18l-2.09-1.58,1.5,5.06,2.09,1.58.28.19,0,0,.28.13.05,0,0,0,.24.07.06,0,.1,0h.12l.15,0h.39l.17,0,.16,0h0c.1,0,.19,0,.29-.06l.07,0,.09,0,.28-.1.42-.17,0,0Z" style="fill:#ccc;stroke:#000;stroke-linecap:round;stroke-linejoin:round;stroke-width:0.75px"/><path d="M250.45,64.7l.09.1.28.33h0l.22.33a.75.75,0,0,0,.07.12l.09.19a.75.75,0,0,1,.06.13,1.08,1.08,0,0,1,.08.19,1.72,1.72,0,0,1,.07.21h0l-1.49-5.06a.74.74,0,0,1,0-.14l0-.07a1.07,1.07,0,0,0-.07-.19l-.06-.14a1.62,1.62,0,0,0-.1-.18.3.3,0,0,0,0-.08l0,0-.22-.33h0a2.22,2.22,0,0,0-.28-.33.43.43,0,0,0-.09-.1,2.72,2.72,0,0,0-.24-.24l-.1-.09c-.12-.1-.24-.21-.38-.31l-4.54-3.42,1.5,5.06,4.54,3.43c.13.1.26.2.37.3l.11.1Z" style="fill:#ccc;stroke:#000;stroke-linecap:round;stroke-linejoin:round;stroke-width:0.75px"/><polygon points="235.17 70.63 233.68 65.56 243.69 55.58 245.19 60.65 235.17 70.63" style="fill:#ccc;stroke:#000;stroke-linecap:round;stroke-linejoin:round;stroke-width:0.75px"/><path d="M251.44,68.28a8.1,8.1,0,0,1-2.31,3.7,11,11,0,0,1-4.29,2.76,5.39,5.39,0,0,1-5.19-.74l-4.48-3.38,10-10,4.54,3.43A3.83,3.83,0,0,1,251.44,68.28ZM244,72.37a7.88,7.88,0,0,0,2.82-1.91c1.31-1.3,1.94-2.42,1.88-3.34a2.24,2.24,0,0,0-1-1.63l-2-1.53L239,70.51l2.09,1.58a2.85,2.85,0,0,0,2.86.28" style="fill:#fff;stroke:#000;stroke-linecap:round;stroke-linejoin:round;stroke-width:0.75px"/><path d="M233.5,64.09l.12,0,.07,0,.32-.16.07,0,.4-.25h0q.21-.14.42-.3l.08-.06.4-.33.07-.07a5.16,5.16,0,0,0,.42-.4,4.92,4.92,0,0,0,1.83-3.49,2.39,2.39,0,0,0-.1-.66l-1.49-5.06a2.84,2.84,0,0,1,.1.66,5,5,0,0,1-1.83,3.49l-.42.4-.07.06-.41.34-.08.06-.41.29,0,0a4.23,4.23,0,0,1-.4.24l-.07,0-.39.19L232,59l-.33.13-.1,0-.19.05-.31.07a2.57,2.57,0,0,1-.4.06l-.31,0H230l-.24,0h-.06l-.3-.07h0l-.25-.08-.09,0-.19-.09-.09,0-.18-.1-.08-.05-.25-.17-.22-.18-.06-.06-.14-.14-.06-.06-.14-.16,0,0-.14-.21,0-.07a.83.83,0,0,1-.07-.13.36.36,0,0,1,0-.09.5.5,0,0,1,0-.13.58.58,0,0,1-.05-.14l1.49,5.06,0,.1a.08.08,0,0,1,0,0,.78.78,0,0,1,.05.14.2.2,0,0,1,0,.08l.07.13,0,.06h0c0,.07.09.14.14.21l0,0,.13.16.06.07.14.13.06.06.22.18.25.17.08,0,.19.1.09,0,.19.08.08,0h0l.22.07h0l.27.07h.08l.25,0H232l.16,0,.34,0,.06,0,.3-.07.15,0,0,0,.1,0Z" style="fill:#ccc;stroke:#000;stroke-linecap:round;stroke-linejoin:round;stroke-width:0.75px"/><path d="M228.75,56.13l.24-.22.15-.12.24-.19.17-.14.21-.16.19-.12.2-.15.18-.11.21-.13.18-.1.22-.12.18-.09.21-.1.46-.2.13,0,.33-.11.18-.05.2-.06.2,0,.2,0,.22,0,.17,0,.22,0,.17,0h.75l.46,0h.08l.47.07.39.09.13,0,.51.16.27.11.2.08.27.13.18.09.3.18.15.09c.14.09.29.19.43.3l.32.26.07.06.29.27,0,0,.24.26,0,.07a3.25,3.25,0,0,1,.23.29l0,0a2.2,2.2,0,0,1,.18.28l0,.06a.54.54,0,0,1,.07.13l.15.28c0,.05,0,.1.07.16l.11.27.09.27-1.49-5.06-.06-.19a.59.59,0,0,0,0-.08,2.33,2.33,0,0,0-.11-.28l-.06-.15-.15-.29a.41.41,0,0,1,0-.09l0,0,0,0-.18-.28,0-.05-.23-.3-.06-.06-.24-.26,0,0-.29-.27-.07-.06L236.9,50l-.43-.3-.15-.09-.29-.17-.19-.09-.27-.14-.2-.08-.26-.1h0a4.16,4.16,0,0,0-.5-.16l-.14,0c-.12,0-.25-.07-.38-.09h0l-.45-.06h-.08l-.36,0h-.85l-.17,0-.22,0-.17,0h-.11l-.1,0-.2,0-.2.05-.2.06-.1,0-.08,0-.33.11-.14,0-.46.2h0l-.21.1-.18.09-.21.12-.18.1-.21.13-.18.11-.21.15-.18.12-.22.16a1.09,1.09,0,0,1-.17.13l-.24.2-.14.12-.25.22-.14.13c-.13.11-.25.24-.38.36q-3,3-2.43,5.82l.09.36,1.5,5.06c0-.12-.07-.24-.1-.36-.4-1.86.42-3.8,2.43-5.81l.39-.37A.86.86,0,0,1,228.75,56.13Z" style="fill:#ccc;stroke:#000;stroke-linecap:round;stroke-linejoin:round;stroke-width:0.75px"/><path d="M240.48,58.17C240.89,60,240.07,62,238,64s-4.13,3-6.33,2.88a6.66,6.66,0,0,1-3.83-1.35,5.24,5.24,0,0,1-2.09-3.11c-.4-1.86.42-3.8,2.43-5.81s4.15-3,6.34-2.92a6.67,6.67,0,0,1,3.84,1.37A5.21,5.21,0,0,1,240.48,58.17Zm-8.3,6.26a6.17,6.17,0,0,0,3.71-2,4.92,4.92,0,0,0,1.83-3.49,2.54,2.54,0,0,0-1.11-2,3.48,3.48,0,0,0-2.51-.69,6.35,6.35,0,0,0-3.73,2.07,4.94,4.94,0,0,0-1.82,3.46,2.6,2.6,0,0,0,1.13,2.06,3.42,3.42,0,0,0,2.5.67" style="fill:#fff;stroke:#000;stroke-linecap:round;stroke-linejoin:round;stroke-width:0.75px"/><path d="M220.59,56.45l.2-.2A4.18,4.18,0,0,0,222,54.6a.55.55,0,0,0,0-.18.63.63,0,0,0,0-.19L220.73,50l2.25,1.7.22.15.07,0,.14.08.09,0,.12.06.09,0,.1,0,.59,2a2.72,2.72,0,0,1,.11.25l0,.07a1.72,1.72,0,0,1,.07.21h0l-.73-2.48.06,0,.06,0,.14,0h.09l.15,0h.37l.07,0,.1,0H225l.17-.07h0l0,0,.11-.06.08,0,.12-.08.08,0,.13-.11.07,0,.19-.19a1.81,1.81,0,0,0,.6-1.06,1.15,1.15,0,0,0,0-.45l-1.29-4.36,2.72,2,.33.27.09.08.21.21.08.08.24.28s0,0,0,0a1.84,1.84,0,0,1,.17.25.3.3,0,0,1,.06.11.64.64,0,0,1,.08.14l.05.11.06.15.06.17L228,44.52s0-.07,0-.11,0,0,0-.06l-.06-.15-.06-.11a1,1,0,0,0-.07-.15l0-.06,0,0a2.2,2.2,0,0,0-.17-.25l0,0a3.07,3.07,0,0,0-.24-.29l-.07-.07-.22-.21-.08-.08-.33-.27-5.23-3.94,1.5,5.06,2.31,1.75a1.89,1.89,0,0,1-.57,1l-.2.19-.06,0-.13.1-.08.06-.12.08-.08,0-.12.07-.07,0-.18.07h0l-.11,0-.08,0h-.35l-.16,0h-.09l-.13,0-.07,0-.11,0-.11-.05-.09,0-.13-.06-.08,0-.15-.09-.07,0-.22-.16L219,44.7l1.49,5a5.38,5.38,0,0,1-1.16,1.45c-.48.48-.87.9-1.16,1.25a5.87,5.87,0,0,0-.64.92L219,58.43a5.58,5.58,0,0,1,.65-.93h0c.24-.29.56-.64,1-1l1,3.37v0a.61.61,0,0,0,0,.12h0Z" style="fill:#ccc;stroke:#000;stroke-linecap:round;stroke-linejoin:round;stroke-width:0.75px"/><polygon points="212.76 53.73 211.26 48.67 221.28 38.69 222.78 43.75 212.76 53.73" style="fill:#ccc;stroke:#000;stroke-linecap:round;stroke-linejoin:round;stroke-width:0.75px"/><path d="M221.73,59.16a.71.71,0,0,0-.09.82l-.26.25-2.4-1.8a5.58,5.58,0,0,1,.65-.93,16.33,16.33,0,0,1,1.16-1.25A4.18,4.18,0,0,0,222,54.6c.09-.44-.24-.94-1-1.49l-2.23-1.69-3.93,3.91-2.11-1.6,10-10L228,47.69a3.2,3.2,0,0,1,1.53,3.06,3.85,3.85,0,0,1-1.15,2.19,4.65,4.65,0,0,1-1.91,1.16,3.41,3.41,0,0,1-2.07,0,2,2,0,0,1,.25,1.42,5.22,5.22,0,0,1-1.5,2.11A15.87,15.87,0,0,0,221.73,59.16Zm2.81-6.88a2.22,2.22,0,0,0,1.47-.77,1.81,1.81,0,0,0,.6-1.06,1.5,1.5,0,0,0-.75-1.35l-2.69-2-2.71,2.7,2.52,1.9a2.5,2.5,0,0,0,1.56.61" style="fill:#fff;stroke:#000;stroke-linecap:round;stroke-linejoin:round;stroke-width:0.75px"/><path d="M214.69,44.39l.17-.1.1-.07.18-.14.09-.07.28-.26a1.62,1.62,0,0,0,.61-1.41l0-.13-1.49-5.07,0,.14a1.61,1.61,0,0,1-.62,1.41l-.27.26-.09.07-.19.14-.09.06-.17.11-.1.05a1.22,1.22,0,0,1-.24.1l-.18.05-.09,0a.85.85,0,0,1-.23,0h0a.81.81,0,0,1-.22,0H212l-.13,0-.3-.08-.22-.1-.06,0-.18-.09-.06,0a1.88,1.88,0,0,1-.23-.16l-1.92-1.44,1.5,5.06,1.91,1.44.23.16.07,0,.17.1.06,0,.22.09h0l.29.08h.48l.2,0h0l.09,0,.11,0,.07,0,.18-.07.05,0Z" style="fill:#ccc;stroke:#000;stroke-linecap:round;stroke-linejoin:round;stroke-width:0.75px"/><path d="M218.16,40.35l.07.08.23.27h0a2.11,2.11,0,0,1,.18.27l.06.1.08.15a.54.54,0,0,0,.05.11l.06.15.06.17h0l-1.5-5.06,0-.11,0-.06-.06-.15a.54.54,0,0,0-.05-.11,1.09,1.09,0,0,0-.08-.15l0-.07s0,0,0,0l-.19-.27h0l-.22-.26-.07-.08-.2-.19-.08-.07a3.61,3.61,0,0,0-.3-.25l-4.62-3.48L213,36.36l4.62,3.48c.11.08.21.17.3.25l.09.07Z" style="fill:#ccc;stroke:#000;stroke-linecap:round;stroke-linejoin:round;stroke-width:0.75px"/><polygon points="202.94 46.34 201.45 41.28 211.47 31.3 212.96 36.36 202.94 46.34" style="fill:#ccc;stroke:#000;stroke-linecap:round;stroke-linejoin:round;stroke-width:0.75px"/><path d="M219.06,42.48a4.3,4.3,0,0,1-1.5,3A5.89,5.89,0,0,1,215,46.92a4.29,4.29,0,0,1-3.93-.75l-2.39-1.8L205.1,48l-2.16-1.62,10-10,4.62,3.48A3.22,3.22,0,0,1,219.06,42.48Zm-4.7,2.06a3.12,3.12,0,0,0,1.15-.79,1.62,1.62,0,0,0,.61-1.41,2.45,2.45,0,0,0-1.08-1.4l-1.65-1.24-3,3,1.91,1.44a2.09,2.09,0,0,0,2,.43" style="fill:#fff;stroke:#000;stroke-linecap:round;stroke-linejoin:round;stroke-width:0.75px"/><path d="M81.35,32.22l-2.54.3-.27,10.1L76.9,39.49,74.32,38l.05-2.4,2.92-.34-3.71-2.13-2.92.34-.21,8.66-2.73-1.57-5.54.65-.06,2.41,2.55,1.46a3.23,3.23,0,0,1-.29.43l0,0a3.58,3.58,0,0,1-1.43,1l-.18.07a4.1,4.1,0,0,1-1.93.2l-.24,0a2.89,2.89,0,0,1-.84-.3l3.71,2.13.09,0a2.67,2.67,0,0,0,.52.2l.23,0,.24,0a3.92,3.92,0,0,0,1,0h0l3.19,1.82,0-1.82-1.3-.75.26-.2a2.23,2.23,0,0,0,.27-.26l0,0,0,0a1.92,1.92,0,0,0,.18-.22,2.23,2.23,0,0,0,.2-.3l0-.07,0-.09a2.4,2.4,0,0,1,.11-.23c0-.1.06-.21.08-.31a2,2,0,0,0,.07-.23,4.86,4.86,0,0,0,.1-.8h0l-3-1.73v-.31l4.55-.54L70.31,48,74,50.15l.26-10.7,4,7.63L82,49.21,78.58,42.7l3.67,2.1.27-10.15,2.54-.3Z" style="fill:#fff;stroke:#000;stroke-linecap:round;stroke-linejoin:round;stroke-width:0.5px"/><path d="M67.4,39.1,63.69,37a3.57,3.57,0,0,1,.55.41,2.87,2.87,0,0,1,.51.74,1.1,1.1,0,0,1,.18.59l3.72,2.12a1.28,1.28,0,0,0-.19-.59,2.6,2.6,0,0,0-.51-.73A2.71,2.71,0,0,0,67.4,39.1Z" style="fill:#fff;stroke:#000;stroke-linecap:round;stroke-linejoin:round;stroke-width:0.5px"/><path d="M59.06,44.72A12.35,12.35,0,0,1,59.23,43l.12-.51a8,8,0,0,1,.32-1.12,5.87,5.87,0,0,1,.24-.63c.07-.16.15-.32.23-.48a7.42,7.42,0,0,1,.58-1,6.26,6.26,0,0,1,.91-1.06.93.93,0,0,1,.14-.14,6.45,6.45,0,0,1,1-.75l.31-.17a7.3,7.3,0,0,1,.9-.41c.12,0,.24-.09.36-.12a7.32,7.32,0,0,1,1.33-.29,8.45,8.45,0,0,1,1.21,0l.33,0a6.36,6.36,0,0,1,.8.13l.32.08.5.2a3,3,0,0,1,.41.19h0l-3.72-2.12-.15-.09-.25-.1c-.17-.07-.33-.14-.51-.2l-.12,0a1.25,1.25,0,0,0-.19,0,5.14,5.14,0,0,0-.8-.14l-.33,0a7.16,7.16,0,0,0-1.21,0,7,7,0,0,0-1.33.29l-.36.12-.44.16c-.16.07-.31.17-.46.25l-.32.17-.16.09a6.36,6.36,0,0,0-.66.5l-.16.16-.15.14c-.08.08-.17.15-.25.24a7.18,7.18,0,0,0-.54.67l-.11.15a6,6,0,0,0-.45.71c-.05.09-.09.19-.14.28s-.15.31-.22.47-.12.23-.17.35,0,.19-.08.28a9.68,9.68,0,0,0-.31,1.12c0,.17-.09.33-.12.51a12.33,12.33,0,0,0-.18,1.77A7.37,7.37,0,0,0,57,48a4.64,4.64,0,0,0,1.09.86L61.82,51a5.15,5.15,0,0,1-1.09-.86A7.35,7.35,0,0,1,59.06,44.72Z" style="fill:#fff;stroke:#000;stroke-linecap:round;stroke-linejoin:round;stroke-width:0.5px"/><polygon points="52.41 35.64 49.65 35.96 49.3 50.5 53.01 52.63 53.36 38.09 56.12 37.76 52.41 35.64" style="fill:#fff;stroke:#000;stroke-linecap:round;stroke-linejoin:round;stroke-width:0.5px"/><path d="M48.57,45.75l-3.72-2.13-.11-.06a3.38,3.38,0,0,0-.51-.19,1.82,1.82,0,0,0-.28-.11l0,0A7.36,7.36,0,0,0,42.86,43l-3.22-.52c0-.13.07-.26.12-.39s.11-.27.17-.41.07-.16.11-.23a4.85,4.85,0,0,1,.39-.61,5,5,0,0,1,.74-.78l.09-.07a5.21,5.21,0,0,1,.72-.46l.28-.16c.23-.11.49-.19.74-.28s.23-.09.36-.12a9.21,9.21,0,0,1,1.25-.25,8.24,8.24,0,0,1,1.09,0l.29,0a5.3,5.3,0,0,1,.73.12l.26.06.4.16a3.92,3.92,0,0,1,.36.16h0L44,37.1,43.9,37a2.18,2.18,0,0,1-.23-.09l-.4-.16-.09,0c-.06,0-.12,0-.17,0a5.57,5.57,0,0,0-.73-.11l-.29,0a6.89,6.89,0,0,0-1.09.05,7.7,7.7,0,0,0-1.25.24c-.13,0-.24.08-.36.12s-.41.13-.59.21a.71.71,0,0,0-.15.08l-.29.15c-.11.07-.24.12-.35.2a3.07,3.07,0,0,0-.36.27l-.09.06-.05,0c-.14.12-.27.25-.4.38l-.29.36,0,0a5.14,5.14,0,0,0-.32.49l0,.07a2.56,2.56,0,0,0-.11.24h0l-3-1.69L23.59,39l-.35,14.54L27,55.7l.11-4.39,2.66,1.52L37,52l-3.71-2.13-6.19.73.13-5.6,2.66,1.52,6.39-.75-3.72-2.13-5.31.63.07-3.08,8.68-1c0,.13-.06.27-.1.4l-.06.27a6.1,6.1,0,0,0-.09.87,4.83,4.83,0,0,0,.3,1.9A2.36,2.36,0,0,0,37,44.65l.12.08,3.71,2.12-.12-.07a2.47,2.47,0,0,1-.93-1.07,4.69,4.69,0,0,1-.29-1.9,4.94,4.94,0,0,1,.08-.87l.06-.24,2.92,1.68.05,0,.14.06.19.07h0a2.2,2.2,0,0,0,.42.09l3.23.53a7.22,7.22,0,0,1,1.09.22c.11,0,.19.08.28.11A4.59,4.59,0,0,1,48.57,45.75Z" style="fill:#fff;stroke:#000;stroke-linecap:round;stroke-linejoin:round;stroke-width:0.5px"/><path d="M46.69,48.19,43,46.07a1.14,1.14,0,0,1,.59,1.1,1.88,1.88,0,0,1-.12.59,1.2,1.2,0,0,1-.13.31s0,0,0,0a2,2,0,0,1-.26.34l0,0a1.86,1.86,0,0,1-.37.3,3,3,0,0,1-.68.3l-.23.08-.46.1L38,47.38l-2.64.31a4.11,4.11,0,0,0,.94,2.94,3.3,3.3,0,0,0,.86.71l3.72,2.13a3,3,0,0,1-.87-.72,4.13,4.13,0,0,1-.94-2.93l.89-.1,2.6,1.49.07,0a1.88,1.88,0,0,0,.38.15l.26,0,.23,0a4.44,4.44,0,0,0,1,0,6,6,0,0,0,.94-.19l.24-.08.29-.1a2.69,2.69,0,0,0,.38-.2l0,0a1.79,1.79,0,0,0,.26-.2l.09-.08,0,0,.05,0c0-.06.09-.11.13-.16l.08-.13,0,0v0a2,2,0,0,0,.1-.21s0-.05,0-.07a1.93,1.93,0,0,0,.11-.59A1.15,1.15,0,0,0,46.69,48.19Z" style="fill:#fff;stroke:#000;stroke-linecap:round;stroke-linejoin:round;stroke-width:0.5px"/><path d="M42.44,39.43a1.65,1.65,0,0,1,.41.33,1.93,1.93,0,0,1,.3.53,2.92,2.92,0,0,1,.16.73L47,43.14a2.26,2.26,0,0,0-.46-1.25,1.52,1.52,0,0,0-.41-.34Z" style="fill:#fff;stroke:#000;stroke-linecap:round;stroke-linejoin:round;stroke-width:0.5px"/><path d="M19.17,42.12a6.41,6.41,0,0,1,1,0l.27,0a4.27,4.27,0,0,1,.64.11l.26.06a2.78,2.78,0,0,1,.4.16l.32.14-3.71-2.12-.12-.07-.2-.08a3.47,3.47,0,0,0-.41-.16l-.09,0-.16,0A4.27,4.27,0,0,0,16.7,40l-.27,0a6.45,6.45,0,0,0-1,0l-5.81.68L9.3,55.22,13,57.35l.1-4.32,2.66,1.52,2.68-.32a2.75,2.75,0,0,0,.76-.2h0a2.71,2.71,0,0,0,.37-.21l.14-.1.06-.05.08-.06.24-.23c.06-.06.11-.13.17-.2l0-.05,0,0a3.77,3.77,0,0,0,.26-.39,2.44,2.44,0,0,0,.14-.28,4,4,0,0,0,.21-.47,5.44,5.44,0,0,0,.2-.72,4.27,4.27,0,0,0,.13-.48A9.49,9.49,0,0,0,21.51,49c0-1.89-.26-3.18-1-3.82a2.43,2.43,0,0,0-.32-.24L16.51,42.8a1.5,1.5,0,0,1,.33.23c.69.64,1,1.93,1,3.83a9.38,9.38,0,0,1-.19,1.75c0,.17-.09.32-.13.48a6,6,0,0,1-.41,1.19,3.71,3.71,0,0,1-.43.71l0,0a3.27,3.27,0,0,1-.48.5l-.07,0a2.33,2.33,0,0,1-.55.32,3,3,0,0,1-.76.21l-1.6.18.23-9.48Z" style="fill:#fff;stroke:#000;stroke-linecap:round;stroke-linejoin:round;stroke-width:0.5px"/><polygon points="85.06 34.35 84.72 48.89 82 49.21 76.9 39.49 76.84 39.5 76.59 49.84 74.02 50.15 74.37 35.61 77.29 35.27 82.25 44.8 82.52 34.65 85.06 34.35" style="fill:#fff;stroke:#000;stroke-linecap:round;stroke-linejoin:round;stroke-width:0.5px"/><path d="M65.66,36.3A5.24,5.24,0,0,1,70,37.47a4.47,4.47,0,0,1,1.36,3l-2.75.32a1.28,1.28,0,0,0-.19-.59,2.6,2.6,0,0,0-.51-.73,2.89,2.89,0,0,0-.9-.58,3.11,3.11,0,0,0-1.3-.13,3.85,3.85,0,0,0-2.67,1.52,6.77,6.77,0,0,0-1.23,4.12c0,1.78.32,3,1.11,3.76a3.09,3.09,0,0,0,2.6.7,4.3,4.3,0,0,0,1.91-.71,3.28,3.28,0,0,0,1.44-2.8l-3.08.37.06-2.41,5.54-.66-.19,7.74-2.46.3,0-1.83a2.17,2.17,0,0,1-1,1.56,5.45,5.45,0,0,1-2.86,1.12,4.7,4.7,0,0,1-4.18-1.41,7.35,7.35,0,0,1-1.67-5.45,9.59,9.59,0,0,1,1.66-5.48A6.68,6.68,0,0,1,65.66,36.3Z" style="fill:#fff;stroke:#000;stroke-linecap:round;stroke-linejoin:round;stroke-width:0.5px"/><polygon points="56.12 37.76 55.77 52.3 53.01 52.63 53.36 38.09 56.12 37.76" style="fill:#fff;stroke:#000;stroke-linecap:round;stroke-linejoin:round;stroke-width:0.5px"/><path d="M44.61,38.75a4.35,4.35,0,0,1,4,1.21,4.12,4.12,0,0,1,1,2.88l-2.6.3a2.26,2.26,0,0,0-.46-1.25,2.39,2.39,0,0,0-2.22-.58,3.41,3.41,0,0,0-1.54.56A1.74,1.74,0,0,0,42,43.31a1.16,1.16,0,0,0,.44,1,2.19,2.19,0,0,0,.89.29l3.23.53a4.7,4.7,0,0,1,2.35.83,3.11,3.11,0,0,1,1,2.65,4.92,4.92,0,0,1-2.27,4.24,6.82,6.82,0,0,1-3,1.09c-2.12.25-3.66-.15-4.58-1.22a4.13,4.13,0,0,1-.94-2.93l2.64-.31a2,2,0,0,0,.44,1.37,2.56,2.56,0,0,0,2.31.58,4.39,4.39,0,0,0,1.85-.57,1.86,1.86,0,0,0,.94-1.59,1.14,1.14,0,0,0-.65-1.13,4.89,4.89,0,0,0-1.69-.37l-1.4-.22c-.71-.1-1.23-.2-1.56-.27a4.46,4.46,0,0,1-1.31-.53,2.47,2.47,0,0,1-.93-1.07,4.69,4.69,0,0,1-.29-1.9,4.84,4.84,0,0,1,1-2.94A5.83,5.83,0,0,1,44.61,38.75Z" style="fill:#fff;stroke:#000;stroke-linecap:round;stroke-linejoin:round;stroke-width:0.5px"/><polygon points="36.98 40.02 36.91 42.6 29.94 43.43 29.87 46.51 36.26 45.75 36.2 48.29 29.81 49.04 29.72 52.83 36.98 51.98 36.92 54.53 26.95 55.7 27.3 41.16 36.98 40.02" style="fill:#fff;stroke:#000;stroke-linecap:round;stroke-linejoin:round;stroke-width:0.5px"/><path d="M23.44,44a8.19,8.19,0,0,1,.91,4.39,11.3,11.3,0,0,1-1.21,5.11,5.55,5.55,0,0,1-4.4,3.13L13,57.35l.35-14.54,5.8-.69A4,4,0,0,1,23.44,44Zm-2.66,8.37A7.92,7.92,0,0,0,21.51,49c0-1.89-.26-3.18-1-3.82a2.31,2.31,0,0,0-1.93-.48L16,45l-.23,9.57,2.68-.32a2.89,2.89,0,0,0,2.32-1.82" style="fill:#fff;stroke:#000;stroke-linecap:round;stroke-linejoin:round;stroke-width:0.5px"/><polygon points="29.88 106.39 28.82 105.81 35.12 104.92 36.18 105.5 29.88 106.39" style="fill:#fff;stroke:#000;stroke-linecap:round;stroke-linejoin:round;stroke-width:0.5px"/><polygon points="16.06 108.33 15 107.75 19.88 107.06 20.94 107.64 16.06 108.33" style="fill:#fff;stroke:#000;stroke-linecap:round;stroke-linejoin:round;stroke-width:0.5px"/><polygon points="23.22 121.91 22.16 121.33 29.3 131.73 30.36 132.31 23.22 121.91" style="fill:#fff;stroke:#000;stroke-linecap:round;stroke-linejoin:round;stroke-width:0.5px"/><polygon points="28.82 105.81 19.86 117.67 20.92 118.25 29.88 106.38 28.82 105.81" style="fill:#fff;stroke:#000;stroke-linecap:round;stroke-linejoin:round;stroke-width:0.5px"/><polygon points="15.45 133.58 16.5 134.15 16.55 108.49 15.5 107.92 15.45 133.58" style="fill:#fff;stroke:#000;stroke-linecap:round;stroke-linejoin:round;stroke-width:0.5px"/><polygon points="36.18 105.5 26.64 117.52 36.72 131.41 30.36 132.31 23.22 121.91 20.5 124.85 20.48 133.63 15.5 134.33 15.55 108.33 20.5 107.64 20.5 118.25 29.88 106.39 36.18 105.5" style="fill:#fff;stroke:#000;stroke-linecap:round;stroke-linejoin:round;stroke-width:0.5px"/><path d="M55.71,103.19l-.19-.1-.11,0-.27-.12-.21-.07-.29-.09-.14-.05h-.07a5.13,5.13,0,0,0-.59-.12h0c-.2,0-.42,0-.63,0h-.9a5.88,5.88,0,0,0-.71.07l-10.54,1.48,1.06.58,10.54-1.49.71-.07h.9c.22,0,.43,0,.64.06h0a5.79,5.79,0,0,1,.6.12l.2,0,.29.09.21.08.27.12.3.14Z" style="fill:#fff;stroke:#000;stroke-linecap:round;stroke-linejoin:round;stroke-width:0.5px"/><path d="M54.8,112.86c0-.12.06-.23.08-.35s0-.15,0-.22,0-.28,0-.42a1.49,1.49,0,0,0,0-.21q0-.33,0-.69a3,3,0,0,0-1-2.64l-.22-.13-1.06-.58a1.64,1.64,0,0,1,.22.14,3,3,0,0,1,1,2.63q0,.36,0,.69a1.49,1.49,0,0,1,0,.21c0,.14,0,.29-.05.42s0,.15,0,.22a3.59,3.59,0,0,1-.08.35l-.06.2a4.28,4.28,0,0,1-.17.43,2.91,2.91,0,0,1-.17.3l-.09.15c-.09.11-.17.23-.27.33l0,0a3.57,3.57,0,0,1-.28.27l-.16.13-.19.15c-.16.1-.32.19-.5.28l-.06,0a4.79,4.79,0,0,1-.57.21l-.18,0a5,5,0,0,1-.71.14L46,115.6l1.06.58,4.36-.62a4.94,4.94,0,0,0,.71-.15l.18,0a4.79,4.79,0,0,0,.57-.21l.05,0h0a4.08,4.08,0,0,0,.5-.29l0,0,.16-.12.15-.13,0,0a1.9,1.9,0,0,0,.24-.25l0,0h0l.24-.3a.08.08,0,0,1,0,0l.09-.14a1.18,1.18,0,0,0,.11-.19l.06-.11a3.05,3.05,0,0,0,.13-.32.56.56,0,0,0,0-.12Z" style="fill:#fff;stroke:#000;stroke-linecap:round;stroke-linejoin:round;stroke-width:0.5px"/><polygon points="41.45 129.92 42.5 130.49 42.55 104.83 41.5 104.26 41.45 129.92" style="fill:#fff;stroke:#000;stroke-linecap:round;stroke-linejoin:round;stroke-width:0.5px"/><path d="M58.64,104.53q1.95,2,2,5.9a11.18,11.18,0,0,1-1.41,5.28A8,8,0,0,1,53,119.9l-5.51.77,0,9.47-5,.7,0-26.33L53.23,103A6,6,0,0,1,58.64,104.53Zm-3.59,9a6,6,0,0,0,.46-2.52,3,3,0,0,0-1-2.64,4.51,4.51,0,0,0-3.22-.41l-3.75.53v7.73l4.36-.62a3.91,3.91,0,0,0,3.2-2.07" style="fill:#fff;stroke:#000;stroke-linecap:round;stroke-linejoin:round;stroke-width:0.5px"/><polygon points="78.49 99.55 77.43 98.98 82.44 98.27 83.5 98.85 78.49 99.55" style="fill:#fff;stroke:#000;stroke-linecap:round;stroke-linejoin:round;stroke-width:0.5px"/><polygon points="64.48 101.52 63.42 100.94 68.46 100.24 69.52 100.81 64.48 101.52" style="fill:#fff;stroke:#000;stroke-linecap:round;stroke-linejoin:round;stroke-width:0.5px"/><path d="M78.31,118.18c0-.11,0-.23.07-.35l0-.21c0-.13,0-.26,0-.4a1.11,1.11,0,0,1,0-.19c0-.21,0-.42,0-.64l0-16.51-1-.56,0,16.51c0,.22,0,.43,0,.63a1.36,1.36,0,0,0,0,.2c0,.14,0,.27-.05.4l0,.21c0,.12,0,.24-.07.35a1.94,1.94,0,0,0,0,.2,2.55,2.55,0,0,1-.11.33,1.09,1.09,0,0,1-.05.17,4.12,4.12,0,0,1-.24.52,1.09,1.09,0,0,1-.08.15l-.15.24-.21.29c-.07.09-.15.17-.23.26l-.15.15-.16.15-.24.18-.14.11a5.45,5.45,0,0,1-.58.33l-.24.1-.19.08-.29.1L74,121l-.35.09-.17,0-.56.1a4,4,0,0,1-.58,0h-.15a4.38,4.38,0,0,1-.52,0h0a2.61,2.61,0,0,1-.5-.11l-.08,0a2.34,2.34,0,0,1-.46-.19l1,.56.1,0a3,3,0,0,0,.36.15l.08,0,.12,0a2.32,2.32,0,0,0,.38.07h0a3,3,0,0,0,.52,0h.15a4,4,0,0,0,.58,0l.56-.1.17,0,.35-.09.19-.06.29-.1.19-.08.2-.08,0,0a4.61,4.61,0,0,0,.58-.33l0,0,.09-.08.24-.18s.05,0,.08-.07l.08-.08.15-.15.08-.08.15-.18.18-.24,0,0,.15-.24.07-.12,0,0c.08-.16.16-.34.23-.52a.05.05,0,0,1,0,0,.65.65,0,0,1,0-.13c0-.1.07-.21.1-.33A1.94,1.94,0,0,1,78.31,118.18Z" style="fill:#fff;stroke:#000;stroke-linecap:round;stroke-linejoin:round;stroke-width:0.5px"/><path d="M66.31,124.38a6.55,6.55,0,0,1-1.37-2.51,11.36,11.36,0,0,1-.44-3.32l0-16.69-1-.56,0,16.69a11.36,11.36,0,0,0,.44,3.32,6.55,6.55,0,0,0,1.37,2.51,6,6,0,0,0,1.56,1.23l1,.56A5.81,5.81,0,0,1,66.31,124.38Z" style="fill:#fff;stroke:#000;stroke-linecap:round;stroke-linejoin:round;stroke-width:0.5px"/><path d="M83.5,98.85l0,16.83q0,5-2.62,7.8a11.17,11.17,0,0,1-7,3.33,10.16,10.16,0,0,1-3.83-.12A6.28,6.28,0,0,1,65,122.11a11.19,11.19,0,0,1-.46-3.4l0-17.19,5-.7,0,16.76a5,5,0,0,0,1.23,3.77,3.42,3.42,0,0,0,3.06.84,5.34,5.34,0,0,0,3.62-1.82,5.88,5.88,0,0,0,1.12-3.82l0-17Z" style="fill:#fff;stroke:#000;stroke-linecap:round;stroke-linejoin:round;stroke-width:0.5px"/></svg>